<svg width="24" height="24" viewBox="0 0 24 24" fill="none" xmlns="http://www.w3.org/2000/svg">
<path d="M14 21V14H10V21C10 21.5304 9.7893 22.0391 9.41422 22.4142C9.03915 22.7893 8.53044 23 8.00001 23H5.00001C4.46958 23 3.96087 22.7893 3.5858 22.4142C3.21072 22.0391 3.00001 21.5304 3.00001 21V11.41L2.70001 11.71C2.60961 11.814 2.49869 11.8982 2.37421 11.9573C2.24973 12.0164 2.11439 12.0491 1.97666 12.0534C1.83893 12.0578 1.7018 12.0336 1.57386 11.9824C1.44593 11.9312 1.32995 11.8541 1.23321 11.756C1.13647 11.6579 1.06105 11.5408 1.01168 11.4122C0.96232 11.2835 0.940077 11.1461 0.946349 11.0084C0.952622 10.8708 0.987275 10.7359 1.04813 10.6123C1.10899 10.4886 1.19475 10.3789 1.30001 10.29L11.3 1.29001C11.4869 1.10678 11.7383 1.00415 12 1.00415C12.2618 1.00415 12.5131 1.10678 12.7 1.29001L22.7 10.29C22.8653 10.4801 22.9527 10.7256 22.9448 10.9774C22.9369 11.2292 22.8343 11.4688 22.6574 11.6482C22.4805 11.8275 22.2425 11.9336 21.9908 11.945C21.7392 11.9565 21.4925 11.8726 21.3 11.71L21 11.41V21C21 21.5304 20.7893 22.0391 20.4142 22.4142C20.0391 22.7893 19.5304 23 19 23H16C15.4696 23 14.9609 22.7893 14.5858 22.4142C14.2107 22.0391 14 21.5304 14 21ZM19 21V9.41001L12 3.41001L5.00001 9.41001V21H8.00001L8.00001 14C8.00001 12.9 8.90001 12 10 12H14C14.5304 12 15.0392 12.2107 15.4142 12.5858C15.7893 12.9609 16 13.4696 16 14L16 21H19Z" fill="url(#paint0_linear)"/>
<defs>
<linearGradient id="paint0_linear" x1="0.945312" y1="12.0021" x2="22.9453" y2="12.0021" gradientUnits="userSpaceOnUse">
<stop stop-color="#FBED96"/>
<stop offset="1" stop-color="#ABECD6"/>
</linearGradient>
</defs>
</svg>
