<svg width="48" height="48" viewBox="0 0 48 48" fill="none" xmlns="http://www.w3.org/2000/svg">
<path fill-rule="evenodd" clip-rule="evenodd" d="M30.3168 5.12926C30.2979 4.77038 30.0879 4.44923 29.7667 4.28804C29.4455 4.12686 29.0625 4.15042 28.7635 4.34977L29.3182 5.18182C28.7635 4.34977 28.7631 4.34999 28.7628 4.35023L28.7619 4.3508L28.7597 4.35227L28.7534 4.35653L28.7332 4.37027C28.7164 4.38174 28.6931 4.39783 28.6638 4.41845C28.6052 4.45967 28.5224 4.51906 28.4193 4.59589C28.2133 4.74945 27.9256 4.97337 27.588 5.26198C26.9152 5.8373 26.0329 6.67954 25.205 7.74401C23.5623 9.85603 22.0338 12.9838 23.0324 16.6618C23.237 17.4785 23.4587 18.1451 23.6388 18.6868L23.6388 18.6869C23.7213 18.9352 23.7952 19.1572 23.8547 19.3555C24.0504 20.0079 24.1818 20.6498 24.1818 21.7273C24.1818 24.1295 22.2659 26.0455 19.8636 26.0455C17.4614 26.0455 15.5455 24.1295 15.5455 21.7273C15.5455 21.0324 15.7272 20.4108 16.0443 19.7236C16.2445 19.2898 16.1099 18.775 15.7231 18.4947C15.3362 18.2144 14.8051 18.247 14.4553 18.5724C11.7195 21.1173 10 24.7472 10 28.8182C10 36.5796 16.2386 42.8182 24 42.8182C31.7614 42.8182 38 36.5796 38 28.8182C38 24.6326 36.2896 21.4313 34.5657 18.2048C34.4649 18.0161 34.3641 17.8274 34.2636 17.6383C32.4319 14.1948 30.6003 10.5149 30.3168 5.12926ZM26.7837 8.9719C27.3542 8.23835 27.9598 7.61933 28.4853 7.13822C29.0773 11.9702 30.8458 15.4717 32.4978 18.5776C32.5804 18.7328 32.6625 18.8868 32.744 19.0396L32.7459 19.0433C34.5124 22.3564 36 25.1465 36 28.8182C36 35.475 30.6568 40.8182 24 40.8182C17.3432 40.8182 12 35.475 12 28.8182C12 26.5988 12.5941 24.5354 13.6292 22.766C14.1202 25.7731 16.7109 28.0455 19.8636 28.0455C23.3705 28.0455 26.1818 25.2341 26.1818 21.7273C26.1818 20.4411 26.0178 19.6057 25.7703 18.7808C25.6812 18.4836 25.5918 18.2164 25.5007 17.9439L25.5007 17.9439C25.3329 17.4423 25.1593 16.9231 24.9701 16.1666L24.9648 16.146C24.1964 13.3285 25.3256 10.8465 26.7837 8.9719ZM33.5325 31.4465C33.6787 30.914 33.3655 30.3637 32.8329 30.2175C32.3003 30.0713 31.7501 30.3845 31.6039 30.9171C30.87 33.5904 28.7722 35.6882 26.0989 36.422C25.5663 36.5682 25.2531 37.1185 25.3993 37.6511C25.5455 38.1837 26.0958 38.4969 26.6284 38.3507C29.9823 37.43 32.6118 34.8005 33.5325 31.4465Z" fill="url(#paint0_linear)"/>
<defs>
<linearGradient id="paint0_linear" x1="10" y1="23.5" x2="38" y2="23.5" gradientUnits="userSpaceOnUse">
<stop stop-color="#FBED96"/>
<stop offset="1" stop-color="#ABECD6"/>
</linearGradient>
</defs>
</svg>
