<svg width="48" height="48" viewBox="0 0 48 48" fill="none" xmlns="http://www.w3.org/2000/svg">
<path fill-rule="evenodd" clip-rule="evenodd" d="M6 10.2903C6 7.38293 8.38293 5 11.2903 5C14.2541 5 16.5806 7.37639 16.5806 10.2903C16.5806 11.1827 16.2535 12.3277 15.684 13.6092C15.1228 14.8719 14.3658 16.1807 13.5952 17.3752C12.8265 18.5667 12.056 19.6263 11.4768 20.3889C11.4121 20.4741 11.3499 20.5555 11.2903 20.6329C11.2308 20.5555 11.1685 20.4741 11.1038 20.3889C10.5247 19.6263 9.75414 18.5667 8.98546 17.3752C8.21482 16.1807 7.45787 14.8719 6.89667 13.6092C6.3271 12.3277 6 11.1827 6 10.2903ZM10.5219 22.8818C10.522 22.882 10.5221 22.8821 11.2903 22.2419L10.5221 22.8821C10.7121 23.1101 10.9935 23.2419 11.2903 23.2419C11.5871 23.2419 11.8686 23.1101 12.0585 22.8821L11.2903 22.2419C12.0585 22.8821 12.0587 22.882 12.0588 22.8818L12.0592 22.8813L12.0604 22.8799L12.0646 22.8749L12.0795 22.8568L12.1352 22.789C12.1834 22.7301 12.2532 22.6441 12.3415 22.5337C12.5181 22.313 12.769 21.9942 13.0695 21.5985C13.6698 20.8082 14.4719 19.7055 15.2758 18.4595C16.0777 17.2165 16.8934 15.8125 17.5116 14.4215C18.1215 13.0493 18.5806 11.5996 18.5806 10.2903C18.5806 6.2849 15.3717 3 11.2903 3C7.27836 3 4 6.27836 4 10.2903C4 11.5996 4.45919 13.0493 5.06905 14.4215C5.68729 15.8125 6.50293 17.2165 7.30487 18.4595C8.10877 19.7055 8.91082 20.8082 9.51111 21.5985C9.81164 21.9942 10.0626 22.313 10.2392 22.5337C10.3275 22.6441 10.3973 22.7301 10.4454 22.789L10.5011 22.8568L10.5161 22.8749L10.5202 22.8799L10.5215 22.8813L10.5219 22.8818ZM36.4516 22.6129C32.8523 22.6129 29.9032 25.562 29.9032 29.1613C29.9032 30.2019 30.3031 31.5378 30.9906 33.0275C31.6686 34.4964 32.5817 36.0215 33.5095 37.4131C34.4351 38.8015 35.3626 40.0384 36.0597 40.9291C36.2006 41.1091 36.3319 41.2747 36.4516 41.4244C36.5714 41.2747 36.7027 41.1091 36.8436 40.9291C37.5406 40.0384 38.4682 38.8015 39.3938 37.4131C40.3215 36.0215 41.2347 34.4964 41.9126 33.0275C42.6002 31.5378 43 30.2019 43 29.1613C43 25.5565 40.1084 22.6129 36.4516 22.6129ZM36.4516 43C35.6924 43.6508 35.6922 43.6507 35.6921 43.6505L35.6917 43.65L35.6903 43.6484L35.6854 43.6427L35.6678 43.6219L35.6016 43.5436C35.5442 43.4754 35.4609 43.3756 35.3553 43.2475C35.1443 42.9913 34.8442 42.6211 34.4847 42.1617C33.7664 41.2439 32.8069 39.9647 31.8454 38.5225C30.886 37.0834 29.9121 35.4633 29.1747 33.8656C28.4469 32.2888 27.9032 30.6368 27.9032 29.1613C27.9032 24.4574 31.7477 20.6129 36.4516 20.6129C41.2238 20.6129 45 24.4628 45 29.1613C45 30.6368 44.4563 32.2888 43.7285 33.8656C42.9911 35.4633 42.0172 37.0834 41.0579 38.5225C40.0964 39.9647 39.1368 41.2439 38.4186 42.1617C38.059 42.6211 37.7589 42.9913 37.5479 43.2475C37.4424 43.3756 37.3591 43.4754 37.3017 43.5436L37.2355 43.6219L37.2178 43.6427L37.213 43.6484L37.2116 43.65L37.2111 43.6505C37.211 43.6507 37.2109 43.6508 36.4516 43ZM36.4516 43L37.2109 43.6508C37.0209 43.8725 36.7435 44 36.4516 44C36.1597 44 35.8823 43.8725 35.6924 43.6508L36.4516 43ZM36.4516 27.0161C35.2669 27.0161 34.3065 27.9766 34.3065 29.1613C34.3065 30.346 35.2669 31.3065 36.4516 31.3065C37.6364 31.3065 38.5968 30.346 38.5968 29.1613C38.5968 27.9766 37.6364 27.0161 36.4516 27.0161ZM32.3065 29.1613C32.3065 26.872 34.1623 25.0161 36.4516 25.0161C38.7409 25.0161 40.5968 26.872 40.5968 29.1613C40.5968 31.4506 38.7409 33.3065 36.4516 33.3065C34.1623 33.3065 32.3065 31.4506 32.3065 29.1613ZM11.2903 8.77418C10.453 8.77418 9.77419 9.45297 9.77419 10.2903C9.77419 11.1276 10.453 11.8064 11.2903 11.8064C12.1277 11.8064 12.8064 11.1276 12.8064 10.2903C12.8064 9.45297 12.1277 8.77418 11.2903 8.77418ZM7.77419 10.2903C7.77419 8.3484 9.34841 6.77418 11.2903 6.77418C13.2322 6.77418 14.8064 8.3484 14.8064 10.2903C14.8064 12.2322 13.2322 13.8064 11.2903 13.8064C9.34841 13.8064 7.77419 12.2322 7.77419 10.2903ZM15.6935 21.2419C15.1413 21.2419 14.6935 21.6897 14.6935 22.2419C14.6935 22.7942 15.1413 23.2419 15.6935 23.2419H21.0403C22.7526 23.2419 24.129 24.6184 24.129 26.3306C24.129 28.0429 22.7526 29.4194 21.0403 29.4194H11.2903C7.27836 29.4194 4 32.6977 4 36.7097C4 40.7216 7.27836 44 11.2903 44H31.4194C31.9716 44 32.4194 43.5523 32.4194 43C32.4194 42.4477 31.9716 42 31.4194 42H11.2903C8.38293 42 6 39.6171 6 36.7097C6 33.8023 8.38293 31.4194 11.2903 31.4194H21.0403C23.8571 31.4194 26.129 29.1474 26.129 26.3306C26.129 23.5138 23.8571 21.2419 21.0403 21.2419H15.6935Z" fill="url(#paint0_linear)"/>
<defs>
<linearGradient id="paint0_linear" x1="4" y1="23.5" x2="45" y2="23.5" gradientUnits="userSpaceOnUse">
<stop stop-color="#FBED96"/>
<stop offset="1" stop-color="#ABECD6"/>
</linearGradient>
</defs>
</svg>
