<svg width="48" height="48" viewBox="0 0 48 48" fill="none" xmlns="http://www.w3.org/2000/svg">
<path fill-rule="evenodd" clip-rule="evenodd" d="M23.6345 4.39056C23.2809 3.96629 22.6503 3.90896 22.2261 4.26253C21.8018 4.61609 21.7445 5.24666 22.098 5.67093L25.1601 9.34538C25.5136 9.76965 26.1442 9.82698 26.5685 9.47341C26.9928 9.11985 27.0501 8.48928 26.6965 8.06501L23.6345 4.39056ZM7.49273 4.29359C7.89985 3.9204 8.53242 3.9479 8.90561 4.35502L15.6421 11.7039C16.0153 12.111 15.9878 12.7436 15.5807 13.1168C15.1735 13.49 14.541 13.4625 14.1678 13.0554L7.4313 5.70647C7.05811 5.29935 7.08561 4.66679 7.49273 4.29359ZM28.9903 10.5424L29.4789 9.66992C29.2283 9.52955 28.9293 9.50376 28.6583 9.59913C28.3874 9.6945 28.1705 9.90181 28.063 10.1682L26.6544 13.6589L26.6544 13.6589L26.651 13.6675C26.0283 15.2526 25.064 16.729 23.8126 17.9803L24.4692 18.6369L23.8126 17.9803L23.7514 18.0416C22.8881 18.9048 21.7302 19.4022 20.5391 19.4022H20.1104C18.4121 19.4022 16.854 18.4566 16.0414 16.887L15.1257 15.0557C14.982 14.7682 14.7088 14.5673 14.3915 14.5158C14.0742 14.4643 13.7515 14.5685 13.5242 14.7958L13.0955 15.2245C11.9416 16.3784 11.6375 18.0831 12.1906 19.5843L12.198 19.6037L13.4228 22.727L13.4307 22.7465C13.6714 23.3242 13.7743 24.0221 13.7242 24.6736L13.7241 24.6736L13.7235 24.6822L13.3561 30.0714L13.3561 30.0714L13.3557 30.0771C13.2536 31.7113 12.3889 33.1993 10.9398 34.133L6.04985 37.1892L6.04811 37.1903C4.36163 38.2354 3.65993 40.2384 4.20767 42.1164C4.22781 42.1855 4.25534 42.2521 4.28978 42.3153C4.81353 43.2755 5.86617 44 7.06614 44H14.66C17.4666 44 20.2046 42.999 22.3444 41.1949L25.9548 38.1964L25.9667 38.1864C26.4126 37.8041 26.9684 37.2718 27.3094 36.5358L28.7507 34.0135C29.0577 33.5044 29.4497 33.0764 29.8512 32.8087C29.8602 32.8028 29.869 32.7967 29.8778 32.7904L32.8786 30.647L32.8973 30.6333C33.2 30.4063 33.4879 30.1182 33.7162 29.8898L33.7393 29.8667L33.7505 29.8554L33.7637 29.8414L39.6395 23.5372L39.6412 23.5354C41.0283 22.0595 40.8345 19.8049 39.3066 18.5316L39.3011 18.5271L37.5863 17.1186C37.1652 16.7726 36.5445 16.8277 36.1908 17.2424L29.0869 25.5711C29.0613 25.6011 29.0375 25.6326 29.0156 25.6653C28.9664 25.7392 28.8769 25.8287 28.8031 25.8779C28.7668 25.9021 28.7321 25.9287 28.6993 25.9574L24.7798 29.3869C24.1873 29.9053 23.7516 30.4919 23.4006 31.1236C23.3936 31.1363 23.3868 31.1491 23.3804 31.162L21.7981 34.3266C21.5108 34.841 21.2298 35.2304 20.9189 35.4635C20.8978 35.4794 20.8772 35.4962 20.8573 35.5137L19.8177 36.431L19.8167 36.4319C17.9766 38.0485 15.639 38.938 13.1902 38.938H7.0279C7.05239 38.9215 7.07728 38.9054 7.10256 38.8898L7.10621 38.8875L12.0055 35.8255L12.0055 35.8255L12.0162 35.8187C13.3429 34.9658 14.3266 33.7567 14.8735 32.3638C14.884 32.3641 14.8944 32.3643 14.9049 32.3643H16.7421C17.2944 32.3643 17.7421 31.9165 17.7421 31.3643C17.7421 30.812 17.2944 30.3643 16.7421 30.3643H15.3398C15.3444 30.3112 15.3483 30.258 15.3517 30.2047L15.3518 30.2018L15.4132 29.3022H17.3545C17.9068 29.3022 18.3545 28.8545 18.3545 28.3022C18.3545 27.7499 17.9068 27.3022 17.3545 27.3022H15.5495L15.622 26.2402H17.967C18.5193 26.2402 18.967 25.7925 18.967 25.2402C18.967 24.6879 18.5193 24.2402 17.967 24.2402H15.7356C15.7228 23.478 15.5738 22.6939 15.2811 21.9875L14.064 18.884C13.8757 18.3667 13.8794 17.8335 14.0468 17.3701L14.2555 17.7874L14.2554 17.7874L14.2613 17.7988C15.4092 20.0228 17.6463 21.4022 20.1104 21.4022H20.5391C22.2875 21.4022 23.9467 20.6747 25.1656 19.4558L24.4585 18.7487L25.1656 19.4558L25.2268 19.3945C26.669 17.9524 27.7862 16.2459 28.5108 14.4032L29.4812 11.9984C30.0341 12.3408 30.7505 12.8052 31.4627 13.3251C32.2071 13.8685 32.9151 14.4496 33.4269 14.9973C33.6826 15.2709 33.8671 15.5127 33.983 15.7156C34.1028 15.9252 34.1144 16.032 34.1144 16.0541C34.1144 16.6064 34.5621 17.0541 35.1144 17.0541C35.6667 17.0541 36.1144 16.6064 36.1144 16.0541C36.1144 15.5556 35.9346 15.0998 35.7195 14.7233C35.5005 14.3401 35.2065 13.9724 34.8881 13.6317C34.2517 12.9507 33.4287 12.284 32.642 11.7097C31.8488 11.1307 31.0599 10.6221 30.4721 10.2596C30.1774 10.0779 29.9313 9.93169 29.7579 9.83043C29.6712 9.77977 29.6027 9.74029 29.5552 9.71317L29.5001 9.68186L29.4851 9.67341L29.4809 9.67104L29.4796 9.67032L29.4792 9.67008C29.4791 9.66999 29.4789 9.66992 28.9903 10.5424ZM6.09752 41.444C6.05592 41.2741 6.03233 41.1047 6.02583 40.938H13.1902C16.1302 40.938 18.9363 39.8681 21.138 37.9333L21.1395 37.932L22.1532 37.0375C22.7998 36.5402 23.2407 35.8482 23.5567 35.2794C23.5637 35.2667 23.5705 35.2539 23.5769 35.241L25.1591 32.0766C25.4182 31.614 25.7145 31.2266 26.0969 30.892L29.9734 27.5001C30.226 27.3206 30.4633 27.0827 30.6419 26.8298L37.0754 19.2871L38.0262 20.0681L38.0287 20.0701C38.7024 20.6338 38.7531 21.5608 38.1831 22.1664L38.1798 22.17L32.3127 28.4649C32.0649 28.7126 31.8776 28.8966 31.7057 29.0269L28.7276 31.1541C28.0354 31.6194 27.4547 32.2861 27.0305 32.9932L27.0197 33.0116L25.55 35.5837C25.5333 35.6129 25.5181 35.6429 25.5044 35.6737C25.3538 36.0125 25.0692 36.3208 24.6708 36.6629L21.0638 39.6586L21.0637 39.6586L21.0578 39.6636C19.2786 41.1648 16.9962 42 14.66 42H7.06614C6.70384 42 6.32036 41.7822 6.09752 41.444ZM35.3392 31.9767C35.3392 31.4244 35.7869 30.9767 36.3392 30.9767H43.0757C43.6279 30.9767 44.0757 31.4244 44.0757 31.9767C44.0757 32.529 43.6279 32.9767 43.0757 32.9767H36.3392C35.7869 32.9767 35.3392 32.529 35.3392 31.9767ZM30.8275 35.8759C30.2752 35.8759 29.8275 36.3237 29.8275 36.8759C29.8275 37.4282 30.2752 37.8759 30.8275 37.8759H37.564C38.1163 37.8759 38.564 37.4282 38.564 36.8759C38.564 36.3237 38.1163 35.8759 37.564 35.8759H30.8275ZM32.8896 41.7752C32.8896 41.2229 33.3373 40.7752 33.8896 40.7752H42.4633C43.0155 40.7752 43.4633 41.2229 43.4633 41.7752C43.4633 42.3275 43.0155 42.7752 42.4633 42.7752H33.8896C33.3373 42.7752 32.8896 42.3275 32.8896 41.7752ZM41.199 35.8759C40.6468 35.8759 40.199 36.3237 40.199 36.8759C40.199 37.4282 40.6468 37.8759 41.199 37.8759H41.8115C42.3637 37.8759 42.8115 37.4282 42.8115 36.8759C42.8115 36.3237 42.3637 35.8759 41.8115 35.8759H41.199Z" fill="url(#paint0_linear)"/>
<defs>
<linearGradient id="paint0_linear" x1="4.02469" y1="24.0154" x2="44.0757" y2="24.0154" gradientUnits="userSpaceOnUse">
<stop stop-color="#FBED96"/>
<stop offset="1" stop-color="#ABECD6"/>
</linearGradient>
</defs>
</svg>
