<svg width="48" height="48" viewBox="0 0 48 48" fill="none" xmlns="http://www.w3.org/2000/svg">
<path fill-rule="evenodd" clip-rule="evenodd" d="M20.6923 5.84616C20.6923 5.72153 20.7984 5.61539 20.9231 5.61539H27.0769C27.2016 5.61539 27.3077 5.72153 27.3077 5.84616V7.3077H25.8462C25.2939 7.3077 24.8462 7.75542 24.8462 8.3077V9.78993C24.5658 9.77618 24.2837 9.76923 24 9.76923C23.7163 9.76923 23.4342 9.77618 23.1539 9.78992V8.3077C23.1539 7.75542 22.7061 7.3077 22.1539 7.3077H20.6923V5.84616ZM21.1539 10.0064V9.3077H19.6923C19.14 9.3077 18.6923 8.85999 18.6923 8.3077V5.84616C18.6923 4.61696 19.6939 3.61539 20.9231 3.61539H27.0769C28.3061 3.61539 29.3077 4.61696 29.3077 5.84616V8.3077C29.3077 8.85999 28.86 9.3077 28.3077 9.3077H26.8462V10.0064C34.88 11.3606 41 18.3502 41 26.7692C41 36.1581 33.3888 43.7692 24 43.7692C14.6112 43.7692 7.00001 36.1581 7.00001 26.7692C7.00001 18.3502 13.12 11.3606 21.1539 10.0064ZM24 11.7692C15.7157 11.7692 9.00001 18.485 9.00001 26.7692C9.00001 35.0535 15.7157 41.7692 24 41.7692C32.2843 41.7692 39 35.0535 39 26.7692C39 18.485 32.2843 11.7692 24 11.7692ZM23.0616 15.6923C23.0616 15.14 23.5093 14.6923 24.0616 14.6923C30.7061 14.6923 36.1385 20.1247 36.1385 26.7693C36.1385 33.4138 30.7061 38.8462 24.0616 38.8462C18.7606 38.8462 14.3331 35.4875 12.6583 30.7979C12.4725 30.2778 12.7436 29.7056 13.2637 29.5198C13.7838 29.3341 14.356 29.6051 14.5418 30.1252C15.9438 34.051 19.6394 36.8462 24.0616 36.8462C29.6016 36.8462 34.1385 32.3093 34.1385 26.7693C34.1385 21.2292 29.6016 16.6923 24.0616 16.6923C23.5093 16.6923 23.0616 16.2446 23.0616 15.6923ZM23.1538 26.7692C23.1538 26.3019 23.5327 25.9231 24 25.9231C24.4673 25.9231 24.8462 26.3019 24.8462 26.7692C24.8462 27.2365 24.4673 27.6154 24 27.6154C23.5327 27.6154 23.1538 27.2365 23.1538 26.7692ZM24 23.9231C22.78 23.9231 21.7393 24.6907 21.3345 25.7692H12.9231C12.3708 25.7692 11.9231 26.2169 11.9231 26.7692C11.9231 27.3215 12.3708 27.7692 12.9231 27.7692H21.3345C21.7393 28.8478 22.78 29.6154 24 29.6154C25.22 29.6154 26.2607 28.8478 26.6655 27.7692H28.3077C28.86 27.7692 29.3077 27.3215 29.3077 26.7692C29.3077 26.2169 28.86 25.7692 28.3077 25.7692H26.6655C26.2607 24.6907 25.22 23.9231 24 23.9231ZM34.26 10.6849C34.5784 10.2337 35.2024 10.1261 35.6536 10.4446C36.7379 11.21 37.8519 12.1231 38.7833 13.1877C39.147 13.6033 39.1049 14.2351 38.6893 14.5987C38.2736 14.9624 37.6419 14.9203 37.2782 14.5047C36.4866 13.6 35.5083 12.7901 34.5002 12.0785C34.049 11.76 33.9415 11.1361 34.26 10.6849Z" fill="url(#paint0_linear)"/>
<defs>
<linearGradient id="paint0_linear" x1="7.00001" y1="23.6923" x2="41" y2="23.6923" gradientUnits="userSpaceOnUse">
<stop stop-color="#FBED96"/>
<stop offset="1" stop-color="#ABECD6"/>
</linearGradient>
</defs>
</svg>
