<svg width="110" height="28" viewBox="0 0 110 28" fill="none" xmlns="http://www.w3.org/2000/svg">
<path fill-rule="evenodd" clip-rule="evenodd" d="M12.2207 5.57186C13.0166 5.57186 13.719 5.29092 14.234 4.77588C14.7491 4.26083 15.03 3.5585 15.03 2.76252C15.03 1.91971 14.7491 1.2642 14.234 0.749157C13.719 0.280934 13.0166 0 12.2207 0C11.4247 0 10.7223 0.280934 10.2073 0.795979C9.69226 1.31102 9.41132 1.96654 9.41132 2.80934C9.41132 3.60532 9.69226 4.30765 10.2073 4.8227C10.7223 5.33774 11.4247 5.57186 12.2207 5.57186ZM7.02334 6.64837H8.10026C8.24072 6.64837 8.33437 6.64837 8.47483 6.74201C8.56848 6.83565 8.6153 6.9293 8.6153 7.06977V10.0196C8.6153 10.16 8.56848 10.2537 8.47483 10.3473C8.38119 10.441 8.28755 10.4878 8.14708 10.4878H7.07017C6.9297 10.4878 6.88288 10.5346 6.88288 10.6751V21.6315C6.88288 21.772 6.83605 21.8656 6.74241 21.9593C6.64876 22.0529 6.55512 22.0997 6.41465 22.0997H1.73242C1.59196 22.0997 1.49831 22.0529 1.40467 21.9593C1.31102 21.8656 1.2642 21.772 1.2642 21.6315V10.6751C1.2642 10.5346 1.21738 10.4878 1.07691 10.4878H0.468223C0.327756 10.4878 0.234111 10.441 0.140467 10.3473C0.0468223 10.2537 0 10.16 0 10.0196V7.06977C0 6.9293 0.0468223 6.83565 0.140467 6.78883C0.234111 6.69519 0.327756 6.64837 0.468223 6.64837H1.03009C1.17056 6.64837 1.21738 6.60154 1.21738 6.46108V5.57145C1.21738 3.93267 1.6856 2.80893 2.57523 2.15342C3.46485 1.54473 4.86952 1.21697 6.69559 1.21697C6.99184 1.21697 7.25711 1.23246 7.48248 1.24562C7.64893 1.25534 7.79362 1.26379 7.91297 1.26379C7.95979 1.26379 8.00661 1.31062 8.05343 1.40426C8.10026 1.49791 8.10026 1.59155 8.10026 1.73202V4.54136C8.10026 4.86912 8.05343 5.00958 7.91297 5.00958C7.58521 5.05641 7.30428 5.19687 7.11699 5.38416C6.9297 5.57145 6.83605 5.80556 6.83605 6.0865V6.46108C6.83605 6.60154 6.88288 6.64837 7.02334 6.64837ZM9.92636 6.64857H14.6086C14.7491 6.64857 14.8895 6.64857 14.9363 6.74221C15.03 6.83586 15.0768 6.9295 15.0768 7.06997V21.6785C15.0768 21.819 15.03 21.9127 14.9363 22.0063C14.8427 22.0999 14.7491 22.1468 14.6086 22.1468H9.92636C9.78589 22.1468 9.69224 22.0999 9.5986 22.0063C9.50495 21.9127 9.45813 21.819 9.45813 21.6785V7.11679C9.45813 6.97633 9.50495 6.88268 9.5986 6.78904C9.69224 6.69539 9.78589 6.64857 9.92636 6.64857ZM23.5516 6.64785H24.8158C24.9563 6.64785 25.0499 6.64785 25.1436 6.74149C25.2372 6.83514 25.284 6.92878 25.284 7.06925V10.0191C25.284 10.1595 25.2372 10.2532 25.1436 10.3468C25.0499 10.4405 24.9563 10.4873 24.8158 10.4873H23.5984C23.458 10.4873 23.4112 10.5341 23.4112 10.6746V16.3869C23.4112 16.7146 23.458 16.9956 23.5984 17.136C23.7857 17.2297 24.0198 17.2765 24.3008 17.2765H24.3476C24.4881 17.2765 24.5817 17.3233 24.6754 17.417C24.769 17.5106 24.8158 17.6043 24.8158 17.7447V21.6778C24.8158 21.8183 24.769 21.9119 24.6754 22.0056C24.5817 22.0992 24.4881 22.146 24.3476 22.146H22.9429C21.3042 22.146 20.04 21.9119 19.244 21.4437C18.448 20.9755 18.0266 20.039 18.0266 18.6812V10.7214C18.0266 10.5809 17.9798 10.5341 17.8393 10.5341H17.0433C16.9029 10.5341 16.8092 10.4873 16.7156 10.3936C16.6219 10.3 16.5751 10.2063 16.5751 10.0659V7.11607C16.5751 6.97561 16.6219 6.88196 16.7156 6.78832C16.8092 6.69467 16.9029 6.64785 17.0433 6.64785H17.8393C17.9798 6.64785 18.0266 6.60103 18.0266 6.46056V3.27665C18.0266 3.13618 18.0734 3.04254 18.1671 2.94889C18.2607 2.85525 18.3544 2.80842 18.4948 2.80842H22.9429C23.0834 2.80842 23.177 2.85525 23.2239 2.94889C23.3175 3.04254 23.3643 3.13618 23.3643 3.27665V6.46056C23.3643 6.60103 23.4112 6.64785 23.5516 6.64785ZM36.8023 7.02322C35.8191 6.60182 34.6953 6.41453 33.4311 6.41453C31.6051 6.41453 30.1067 6.88276 28.9362 7.8192C27.7656 8.75565 27.1569 10.0199 27.0633 11.7055C27.0633 11.9864 27.2038 12.1269 27.5315 12.1269L32.3074 12.1737C32.5415 12.1737 32.682 12.0332 32.7756 11.7523C32.9161 11.3777 33.1502 11.2372 33.4779 11.2372C33.7121 11.2372 33.9462 11.3309 34.0866 11.4713C34.2271 11.6586 34.3207 11.8459 34.3207 12.1269V12.7824C34.3207 12.9228 34.2739 12.9697 34.1335 12.9697H33.1034C31.6519 12.9697 30.5281 13.0633 29.6385 13.2506C28.7489 13.4379 28.0934 13.8125 27.6252 14.5148C27.1101 15.1703 26.876 16.2004 26.876 17.6051C26.876 20.7422 28.2338 22.3341 30.9027 22.3341C32.3074 22.3341 33.3843 21.8659 34.0398 20.9763C34.0866 20.9294 34.1335 20.8826 34.1803 20.8826C34.2271 20.8826 34.2271 20.9295 34.2271 21.0231V21.6318C34.2271 21.7723 34.2739 21.8659 34.3676 21.9595C34.4612 22.0532 34.5549 22.1 34.6953 22.1H39.3776C39.518 22.1 39.6117 22.0532 39.7053 21.9595C39.799 21.8659 39.8458 21.7723 39.8458 21.6318V11.3777C39.8458 10.3944 39.5648 9.50481 39.0498 8.75565C38.5348 8.00649 37.7856 7.44462 36.8023 7.02322ZM34.2739 17.5114C34.2739 17.7455 34.1803 17.9328 33.993 18.0733C33.8057 18.2138 33.5716 18.3074 33.3375 18.3074C33.1502 18.3074 32.9629 18.2138 32.8224 18.0733C32.682 17.9328 32.5883 17.6987 32.5883 17.4646C32.5883 17.2305 32.682 16.9964 32.8224 16.8091C32.9629 16.6218 33.197 16.5282 33.4779 16.5282H34.0866C34.2271 16.5282 34.2739 16.575 34.2739 16.7154V17.5114ZM42.3274 1.26377H47.0096C47.1501 1.26377 47.2906 1.31059 47.3374 1.40423C47.431 1.49788 47.4778 1.59152 47.4778 1.73199V21.6315C47.4778 21.7719 47.431 21.8656 47.3374 21.9592C47.2437 22.0529 47.1501 22.0997 47.0096 22.0997H42.3274C42.1869 22.0997 42.0933 22.0529 41.9996 21.9592C41.906 21.8656 41.8592 21.7719 41.8592 21.6315V1.73199C41.8592 1.59152 41.906 1.49788 41.9996 1.40423C42.0933 1.31059 42.1869 1.26377 42.3274 1.26377ZM67.6113 6.69542L63.2569 6.6486C62.9759 6.6486 62.8355 6.78906 62.7886 7.07L62.0863 13.6719C62.0863 13.7188 62.0395 13.7188 61.9927 13.7188C61.9458 13.7188 61.899 13.7188 61.899 13.6719L61.1499 7.02318C61.1499 6.74224 60.9626 6.60177 60.6816 6.60177H56.7486C56.4676 6.60177 56.2803 6.74224 56.2803 7.02318L55.5312 13.5783C55.5312 13.6251 55.4844 13.6719 55.4375 13.6719C55.3907 13.6719 55.3439 13.6251 55.3439 13.5783L54.6416 7.02318C54.6416 6.74224 54.4543 6.60177 54.1733 6.60177H49.7252C49.4443 6.60177 49.3507 6.74224 49.3507 6.97635V7.11682L52.5346 21.7254C52.5814 22.0063 52.7687 22.1 53.0496 22.1H57.4041C57.685 22.1 57.8723 21.9595 57.8723 21.6786L58.5278 16.5749C58.5278 16.5281 58.5746 16.4813 58.6215 16.4813C58.6504 16.4813 58.6615 16.4992 58.6767 16.5239C58.6862 16.5392 58.6972 16.557 58.7151 16.5749L59.4174 21.6786C59.4174 21.9595 59.6047 22.1 59.8857 22.1H64.4274C64.7084 22.1 64.8956 21.9595 64.9425 21.7254L68.0796 7.21046C68.0796 6.83589 67.9391 6.69542 67.6113 6.69542ZM75.5712 6.41453C76.8354 6.41453 77.9592 6.60182 78.9424 7.02322C79.9257 7.44462 80.6749 8.00649 81.1899 8.75565C81.705 9.50481 81.9859 10.3944 81.9859 11.3777V21.6318C81.9859 21.7723 81.9391 21.8659 81.8454 21.9595C81.7518 22.0532 81.6581 22.1 81.5177 22.1H76.8354C76.695 22.1 76.6013 22.0532 76.5077 21.9595C76.414 21.8659 76.3672 21.7723 76.3672 21.6318V21.0231C76.3672 20.9295 76.3672 20.8826 76.3204 20.8826C76.2736 20.8826 76.2267 20.9294 76.1799 20.9763C75.5244 21.8659 74.4475 22.3341 73.0428 22.3341C70.374 22.3341 69.0161 20.7422 69.0161 17.6051C69.0161 16.2004 69.2502 15.1703 69.7653 14.5148C70.2335 13.8125 70.889 13.4379 71.7786 13.2506C72.6683 13.0633 73.792 12.9697 75.2435 12.9697H76.2736C76.414 12.9697 76.4609 12.9228 76.4609 12.7824V12.1269C76.4609 11.8459 76.3672 11.6586 76.2268 11.4713C76.0863 11.3309 75.8522 11.2372 75.6181 11.2372C75.2903 11.2372 75.0562 11.3777 74.9157 11.7523C74.8221 12.0332 74.6816 12.1737 74.4475 12.1737L69.6716 12.1269C69.3439 12.1269 69.2034 11.9864 69.2034 11.7055C69.2971 10.0199 69.9057 8.75565 71.0763 7.8192C72.2469 6.88276 73.7452 6.41453 75.5712 6.41453ZM76.1331 18.0733C76.3204 17.9328 76.414 17.7455 76.414 17.5114V16.7154C76.414 16.575 76.3672 16.5282 76.2268 16.5282H75.6181C75.3371 16.5282 75.103 16.6218 74.9625 16.8091C74.8221 16.9964 74.7284 17.2305 74.7284 17.4646C74.7284 17.6987 74.8221 17.9328 74.9625 18.0733C75.103 18.2138 75.2903 18.3074 75.4776 18.3074C75.7117 18.3074 75.9458 18.2138 76.1331 18.0733ZM98.795 20.9763C99.9188 21.8659 101.464 22.3341 103.337 22.3341C105.163 22.3341 106.661 21.9127 107.785 21.0699C108.909 20.2271 109.471 19.0566 109.471 17.6051C109.471 16.2472 109.049 15.264 108.16 14.6084C107.27 13.9529 106.146 13.4379 104.695 13.0165C104.086 12.8292 103.571 12.6419 103.196 12.4078C102.822 12.1737 102.634 11.8927 102.634 11.4713C102.634 11.2841 102.681 11.0968 102.775 10.9563C102.869 10.8158 103.056 10.7222 103.243 10.7222C103.43 10.7222 103.571 10.769 103.711 10.9095C103.852 11.0499 103.899 11.2372 103.899 11.4713V11.6586C103.899 11.7991 103.945 11.8927 104.039 11.9864C104.133 12.08 104.226 12.1269 104.367 12.1269H108.675C108.815 12.1269 108.909 12.08 109.002 12.0332C109.096 11.9864 109.143 11.8927 109.143 11.8459C109.143 10.2071 108.581 8.89612 107.504 7.91285C106.427 6.92958 104.976 6.41453 103.15 6.41453C101.417 6.41453 100.012 6.88276 98.9355 7.77238C97.8586 8.662 97.3435 9.92621 97.3435 11.4713C97.3435 12.7824 97.7181 13.8593 98.4673 14.6084C99.2164 15.3576 100.106 15.9195 101.136 16.2472C101.234 16.2752 101.328 16.3031 101.417 16.3298C101.627 16.3926 101.815 16.4485 101.979 16.4813C102.681 16.6686 103.15 16.8559 103.477 16.9964C103.805 17.1368 103.945 17.371 103.945 17.6519C103.945 17.7924 103.899 17.9328 103.805 18.0733C103.711 18.1669 103.571 18.2138 103.384 18.2138C103.15 18.2138 102.962 18.1201 102.775 17.9796C102.588 17.8392 102.494 17.6051 102.494 17.2773C102.494 17.1368 102.447 17.0432 102.354 16.9964C102.26 16.9496 102.166 16.9027 102.026 16.9027H97.5777C97.4372 16.9027 97.3435 16.9496 97.2499 17.0432C97.1562 17.1368 97.1094 17.2305 97.1094 17.371V17.4646C97.0626 18.9161 97.6245 20.0866 98.795 20.9763ZM1.68558 28.0001H83.9525V27.9996H83.9992C84.9825 27.9996 85.8253 27.9527 86.5744 27.8591C87.3704 27.7654 88.0728 27.625 88.6346 27.3909C89.7115 27.0163 90.5075 26.4076 91.0226 25.6116C91.3971 25.0498 91.7249 24.3006 92.0527 23.411C92.1931 23.0364 92.3336 22.615 92.4741 22.1468L96.2198 7.21046C96.2198 7.02317 96.2198 6.92953 96.1262 6.83589C96.0326 6.74224 95.9389 6.69542 95.7984 6.69542L90.6948 6.6486C90.4139 6.6486 90.2734 6.78906 90.2266 7.07L89.7115 13.5315C89.7115 13.5315 89.6647 13.4846 89.6179 13.4846C89.598 13.4846 89.5865 13.4846 89.5764 13.4882C89.5626 13.4931 89.5512 13.5045 89.5242 13.5315L89.0092 7.02317C89.0092 6.74224 88.8219 6.60177 88.541 6.60177H83.4842C83.2032 6.60177 83.1096 6.74224 83.1096 6.97635V7.11682L86.8085 22.0531C86.8085 22.0999 86.8203 22.1468 86.832 22.1936C86.8437 22.2404 86.8554 22.2872 86.8554 22.3341C86.8554 22.7555 86.6213 23.0364 86.153 23.1769C85.6848 23.3173 84.9357 23.3642 83.9056 23.3642C83.8439 23.3642 83.7924 23.3794 83.751 23.4115H1.68558C1.40465 23.4115 1.21736 23.5988 1.21736 23.8797V27.5319C1.21736 27.8128 1.40465 28.0001 1.68558 28.0001ZM93.3168 25.6121C92.8018 26.7359 92.1931 27.3914 91.8185 27.7191C91.7249 27.8128 91.7717 27.9533 91.9122 27.9533H109.002C109.283 27.9533 109.471 27.766 109.471 27.485V23.8797C109.471 23.5988 109.283 23.4115 109.002 23.4115H94.5342C94.3469 23.4115 94.1596 23.552 94.1128 23.7393C94.0076 23.9496 93.8729 24.2781 93.717 24.6583C93.5952 24.9552 93.4605 25.2837 93.3168 25.6121Z" fill="#3D3D4B"/>
</svg>
