<svg width="24" height="24" viewBox="0 0 24 24" fill="none" xmlns="http://www.w3.org/2000/svg">
<path d="M21 11.5V11.5C21.0034 12.8199 20.6951 14.1219 20.1 15.3V15.3C18.661 18.1793 15.7189 19.9987 12.5 20V20C11.1801 20.0034 9.87812 19.6951 8.7 19.1L3 21L4.9 15.3V15.3C4.30493 14.1219 3.99656 12.8199 4 11.5L4 11.5003C4.00111 8.28144 5.82042 5.33932 8.69968 3.90015V3.90015C9.8778 3.30508 11.1798 2.99671 12.4997 3.00015H12.9997H12.9997C17.3155 3.23825 20.7616 6.68434 20.9997 11.0001V11.5001L21 11.5Z" stroke="#7C7F9B" stroke-width="2" stroke-linecap="round" stroke-linejoin="round"/>
</svg>
