<svg width="24" height="24" viewBox="0 0 24 24" fill="none" xmlns="http://www.w3.org/2000/svg">
<path d="M10.17 5C10.3194 4.99949 10.467 5.03246 10.602 5.09649C10.737 5.16052 10.8559 5.25398 10.95 5.37L15.78 11.37C15.9271 11.5489 16.0075 11.7734 16.0075 12.005C16.0075 12.2366 15.9271 12.4611 15.78 12.64L10.78 18.64C10.6103 18.8442 10.3663 18.9726 10.1019 18.997C9.83749 19.0214 9.57421 18.9397 9.36999 18.77C9.16577 18.6003 9.03735 18.3563 9.01297 18.0919C8.98859 17.8275 9.07025 17.5642 9.23999 17.36L13.71 12L9.38999 6.64C9.26771 6.49321 9.19003 6.31447 9.16615 6.12492C9.14227 5.93538 9.17319 5.74295 9.25524 5.57042C9.3373 5.3979 9.46706 5.25248 9.62917 5.15139C9.79128 5.0503 9.97896 4.99777 10.17 5Z" fill="url(#paint0_linear)"/>
<defs>
<linearGradient id="paint0_linear" x1="16.0075" y1="12.0006" x2="9.00874" y2="12.0006" gradientUnits="userSpaceOnUse">
<stop stop-color="#FBED96"/>
<stop offset="1" stop-color="#ABECD6"/>
</linearGradient>
</defs>
</svg>
