<?xml version="1.0" encoding="UTF-8"?><svg version="1.1" viewBox="0 0 48 48" xmlns="http://www.w3.org/2000/svg" xmlns:xlink="http://www.w3.org/1999/xlink"><!--Generated by IJSVG (https://github.com/iconjar/IJSVG)--><path d="M847.982,176.419c-0.0045,-0.0315 -0.012,-0.06 -0.0165,-0.09c-0.0105,-0.0585 -0.021,-0.117 -0.036,-0.1725c-0.009,-0.0345 -0.0225,-0.0675 -0.033,-0.1005c-0.0165,-0.051 -0.033,-0.1005 -0.0525,-0.15c-0.0135,-0.0345 -0.03,-0.069 -0.0465,-0.1005c-0.021,-0.048 -0.0435,-0.093 -0.0705,-0.1365c-0.018,-0.033 -0.039,-0.0645 -0.0585,-0.096c-0.027,-0.0435 -0.0555,-0.0855 -0.087,-0.126c-0.0225,-0.03 -0.0465,-0.06 -0.0705,-0.0885c-0.033,-0.039 -0.0675,-0.0765 -0.1035,-0.1125c-0.027,-0.027 -0.0525,-0.0555 -0.081,-0.0795c-0.039,-0.0345 -0.078,-0.0675 -0.117,-0.099c-0.0315,-0.024 -0.0615,-0.048 -0.093,-0.0705c-0.012,-0.0075 -0.0225,-0.018 -0.0345,-0.0255l-21.9375,-14.625c-0.693,-0.462 -1.5945,-0.462 -2.289,0l-21.936,14.625c-0.012,0.0075 -0.0225,0.018 -0.0345,0.0255c-0.033,0.0225 -0.063,0.0465 -0.093,0.0705c-0.0405,0.0315 -0.0795,0.0645 -0.117,0.099c-0.0285,0.024 -0.0555,0.0525 -0.0825,0.0795c-0.036,0.036 -0.0705,0.0735 -0.102,0.1125c-0.0255,0.0285 -0.0495,0.0585 -0.072,0.0885c-0.03,0.0405 -0.0585,0.0825 -0.0855,0.126c-0.021,0.0315 -0.0405,0.063 -0.06,0.096c-0.0255,0.0435 -0.048,0.0885 -0.0705,0.1365c-0.015,0.0315 -0.0315,0.066 -0.045,0.1005c-0.021,0.0495 -0.0375,0.099 -0.054,0.15c-0.0105,0.033 -0.0225,0.066 -0.0315,0.1005c-0.015,0.0555 -0.0255,0.114 -0.036,0.1725c-0.006,0.03 -0.0135,0.0585 -0.0165,0.09c-0.012,0.087 -0.0195,0.177 -0.0195,0.2685v14.625c0,0.09 0.0075,0.18 0.0195,0.27c0.003,0.0285 0.0105,0.0585 0.0165,0.0885c0.0105,0.0585 0.021,0.1155 0.036,0.1725c0.009,0.0345 0.021,0.0675 0.0315,0.1005c0.0165,0.0495 0.033,0.1005 0.054,0.1515c0.0135,0.033 0.03,0.066 0.045,0.099c0.0225,0.0465 0.045,0.0915 0.0705,0.138c0.0195,0.0315 0.039,0.063 0.06,0.0945c0.027,0.0435 0.0555,0.084 0.0855,0.1245c0.0225,0.0315 0.0465,0.0615 0.072,0.09c0.0315,0.0375 0.066,0.0765 0.102,0.111c0.027,0.0285 0.054,0.0555 0.0825,0.081c0.0375,0.0345 0.0765,0.0675 0.117,0.099c0.03,0.024 0.06,0.048 0.093,0.0705c0.012,0.0075 0.0225,0.018 0.0345,0.0255l21.936,14.625c0.3465,0.231 0.7455,0.3465 1.1445,0.3465c0.399,0 0.798,-0.1155 1.1445,-0.3465l21.9375,-14.625c0.012,-0.0075 0.0225,-0.018 0.0345,-0.0255c0.0315,-0.0225 0.0615,-0.0465 0.093,-0.0705c0.039,-0.0315 0.078,-0.0645 0.117,-0.099c0.0285,-0.0255 0.054,-0.0525 0.081,-0.081c0.036,-0.0345 0.0705,-0.0735 0.1035,-0.111c0.024,-0.0285 0.048,-0.0585 0.0705,-0.09c0.0315,-0.0405 0.06,-0.081 0.087,-0.1245c0.0195,-0.0315 0.0405,-0.063 0.0585,-0.0945c0.027,-0.0465 0.0495,-0.0915 0.0705,-0.138c0.0165,-0.033 0.033,-0.066 0.0465,-0.099c0.0195,-0.051 0.036,-0.102 0.0525,-0.1515c0.0105,-0.033 0.024,-0.066 0.033,-0.1005c0.015,-0.057 0.0255,-0.114 0.036,-0.1725c0.0045,-0.03 0.012,-0.06 0.0165,-0.0885c0.012,-0.09 0.018,-0.18 0.018,-0.27v-14.625c0,-0.0915 -0.006,-0.1815 -0.018,-0.2685v0v0Zm-21.9195,-10.5015l16.161,10.773l-7.218,4.8285l-8.943,-5.982v-9.6195v0Zm-4.125,0v9.6195l-8.9415,5.982l-7.2195,-4.8285l16.161,-10.773v0Zm-17.8125,14.631l5.1615,3.4515l-5.1615,3.4515v-6.903v0Zm17.8125,21.534l-16.161,-10.773l7.2195,-4.827l8.9415,5.9805v9.6195v0Zm2.0625,-13.203l-7.2945,-4.8795l7.2945,-4.8795l7.296,4.8795l-7.296,4.8795v0Zm2.0625,13.203v-9.6195l8.943,-5.9805l7.218,4.827l-16.161,10.773v0Zm17.8125,-14.631l-5.16,-3.4515l5.16,-3.4515v6.903v0Z" transform="matrix(1,0,0,1,-800,-160)" fill-rule="evenodd" fill="#FFF" stroke="none"></path></svg>