<?xml version="1.0" encoding="UTF-8"?><svg version="1.1" viewBox="0 0 44 40" xmlns="http://www.w3.org/2000/svg" xmlns:xlink="http://www.w3.org/1999/xlink"><!--Generated by IJSVG (https://github.com/iconjar/IJSVG)--><path d="M746,305h-9.7246v-14.0616c0,-3.6806 -1.52117,-6.19325 -4.86618,-6.19325c-2.55856,0 -3.98142,1.69559 -4.6437,3.3297c-0.248354,0.586541 -0.209548,1.4036 -0.209548,2.22066v14.7045h-9.63405c0,0 0.124177,-24.9088 0,-27.173h9.63405v4.26458c0.569144,-1.86464 3.64769,-4.52584 8.56044,-4.52584c6.09501,0 10.8836,3.90856 10.8836,12.325v15.1092v0Zm-38.8208,-30.5718h-0.062089c-3.10442,0 -5.11712,-2.07722 -5.11712,-4.71025c0,-2.68426 2.0722,-4.71794 5.23871,-4.71794c3.16392,0 5.10936,2.02856 5.17145,4.71025c0,2.63303 -2.00753,4.71793 -5.23095,4.71793v0v0Zm-4.06938,3.39886h8.57596v27.173h-8.57596v-27.173v0Z" transform="matrix(1,0,0,1,-702,-265)" fill-rule="evenodd" fill="#FFF" stroke="none"></path></svg>