<svg width="24" height="24" viewBox="0 0 24 24" fill="none" xmlns="http://www.w3.org/2000/svg">
<path fill-rule="evenodd" clip-rule="evenodd" d="M8.91208 11.162C8.96969 11.4322 9 11.7126 9 12C9 12.2874 8.96969 12.5678 8.91208 12.838L13.9831 15.3735C14.7164 14.5319 15.7961 14 17 14C19.2091 14 21 15.7909 21 18C21 20.2091 19.2091 22 17 22C14.7909 22 13 20.2091 13 18C13 17.7126 13.0303 17.4322 13.0879 17.162L8.01694 14.6265C7.28363 15.4681 6.20393 16 5 16C2.79086 16 1 14.2091 1 12C1 9.79086 2.79086 8 5 8C6.20393 8 7.28363 8.53189 8.01694 9.3735L13.0879 6.83801C13.0303 6.56777 13 6.28742 13 6C13 3.79086 14.7909 2 17 2C19.2091 2 21 3.79086 21 6C21 8.20914 19.2091 10 17 10C15.7961 10 14.7164 9.46811 13.9831 8.6265L8.91208 11.162ZM5 14C6.10457 14 7 13.1046 7 12C7 10.8954 6.10457 10 5 10C3.89543 10 3 10.8954 3 12C3 13.1046 3.89543 14 5 14ZM17 8C18.1046 8 19 7.10457 19 6C19 4.89543 18.1046 4 17 4C15.8954 4 15 4.89543 15 6C15 7.10457 15.8954 8 17 8ZM17 20C18.1046 20 19 19.1046 19 18C19 16.8954 18.1046 16 17 16C15.8954 16 15 16.8954 15 18C15 19.1046 15.8954 20 17 20Z" fill="white"/>
</svg>
