<?xml version="1.0" encoding="UTF-8"?>
<svg version="1.1" viewBox="0 0 24 24" xmlns="http://www.w3.org/2000/svg" xmlns:xlink="http://www.w3.org/1999/xlink">
    <!--Generated by IJSVG (https://github.com/iconjar/IJSVG)-->
    <path d="M16.4156,18.4171c-0.3956,-1.9371 -0.8934,-3.6838 -1.44,-5.2427c0.5066,-0.0724 1.0378,-0.1137 1.6,-0.1137h0.02h0.0022v0c0.9311,0 1.9533,0.1158 3.0622,0.3678c-0.3844,2.0628 -1.5778,3.8395 -3.2444,4.9886Zm-4.4156,1.3854c-1.7356,0 -3.33778,-0.5743 -4.63555,-1.5378c0.27556,-0.4547 0.8689,-1.3267 1.81112,-2.2285c0.96893,-0.9289 2.30663,-1.8849 4.05333,-2.454c0.5933,1.6645 1.1311,3.5674 1.54,5.7091c-0.8622,0.3285 -1.7933,0.5112 -2.7689,0.5112Zm-7.80221,-7.802c0,-0.0367 0.00222,-0.0743 0.00445,-0.1127c0.22222,0.0082 0.50664,0.0155 0.8511,0.0155h0.00222c1.5689,-0.0104 4.30667,-0.1415 7.08224,-1.0173c0.1511,0.3305 0.3,0.6749 0.4489,1.0327c-1.8534,0.6198 -3.31337,1.6071 -4.39336,2.5904c-1.03779,0.9467 -1.73999,1.884 -2.15113,2.5102c-1.14664,-1.3595 -1.84442,-3.1059 -1.84442,-5.0188Zm4.35555,-6.98895c0.54223,0.63978 1.62666,2.04644 2.78446,4.24335c-2.35556,0.70109 -4.72668,0.8655 -6.16223,0.8651c-0.04001,0 -0.08,0 -0.12001,-0.0004h-0.00222c-0.24222,0 -0.4489,-0.0036 -0.62224,-0.0091c0.56001,-2.23982 2.09335,-4.09494 4.12224,-5.09895Zm3.44666,-0.8131c1.84,0 3.5289,0.64334 4.8645,1.71444c-1.0223,1.22423 -2.3734,2.11135 -3.8312,2.73733c-1.0244,-1.98155 -2.0155,-3.39909 -2.6911,-4.26576c0.5356,-0.11868 1.0889,-0.18601 1.6578,-0.18601Zm6.1267,2.98622c0.9755,1.23888 1.5866,2.77311 1.6644,4.44843c-1.1289,-0.2393 -2.1955,-0.356 -3.1911,-0.356v-0.0004h-0.0067c-0.8,0 -1.5511,0.0726 -2.26,0.1982c-0.1733,-0.4218 -0.3466,-0.8267 -0.5222,-1.2147c1.5778,-0.69196 3.0911,-1.67663 4.3156,-3.07553Zm-6.1267,-5.18468c-5.52444,0.00047 -9.99999,4.47735 -9.99999,10.0005c4.44089e-16,5.5222 4.47555,9.9995 9.99999,9.9995c5.5222,0 10,-4.4773 10,-9.9995c0,-5.52316 -4.4778,-10 -10,-10.0005Z" fill="#FFF"></path>
</svg>