<svg width="290" height="155" viewBox="0 0 290 155" fill="none" xmlns="http://www.w3.org/2000/svg">
<g clip-path="url(#clip0)">
<path fill-rule="evenodd" clip-rule="evenodd" d="M128.154 13.6587C128.105 13.9556 128.055 14.2277 128.006 14.4998L128.006 14.5L128.005 14.5041C127.956 14.7749 127.906 15.0459 127.857 15.3413L127.758 16.2321V17.1229L127.857 18.9044C127.857 19.3004 127.945 19.6963 128.033 20.0922C128.077 20.2901 128.121 20.4881 128.154 20.686C128.55 23.1604 129.639 25.6348 131.123 27.6143C131.844 28.623 132.611 29.5385 133.357 30.4286L133.357 30.4288C134.148 31.3727 134.915 32.2881 135.577 33.256C136.171 34.0478 136.567 34.8396 136.963 35.6314C137.072 35.9589 137.195 36.273 137.316 36.5836L137.316 36.5839C137.524 37.118 137.729 37.6416 137.854 38.2048C137.89 38.3832 137.938 38.5488 137.986 38.7108C138.07 38.998 138.151 39.274 138.151 39.5904L138.25 40.9761L138.349 41.6689V42.3618V43.0546V43.1536V43.2526H138.25C137.85 43.3191 137.406 43.2962 136.977 43.274C136.769 43.2632 136.564 43.2526 136.369 43.2526C136.084 43.2526 135.798 43.2068 135.502 43.1593C135.182 43.108 134.848 43.0546 134.489 43.0546C133.895 42.9556 133.301 42.7577 132.707 42.5597L132.509 42.4608C132.014 42.3618 131.618 42.1638 131.222 41.9659C131.025 41.8174 130.827 41.6937 130.629 41.57C130.431 41.4462 130.233 41.3225 130.035 41.1741C126.769 38.8976 124.591 35.1365 123.502 31.0785C122.414 27.0205 122.315 22.5666 123.007 18.3106C123.502 15.6382 124.393 12.9659 125.482 10.4915C125.558 10.3398 125.634 10.1945 125.708 10.0525C125.924 9.63833 126.126 9.25104 126.274 8.80887C126.353 8.6771 126.432 8.53832 126.513 8.39625C126.736 8.00476 126.973 7.58837 127.263 7.22526C127.461 6.97783 127.635 6.7304 127.808 6.48296C127.981 6.23551 128.154 5.98806 128.352 5.74061L128.946 5.04778C129.022 4.97217 129.126 4.88212 129.215 4.80521L129.216 4.80473C129.277 4.75185 129.331 4.70521 129.364 4.67381L129.639 4.94881C129.688 5.09727 129.738 5.27048 129.787 5.44369L129.787 5.44383C129.837 5.61699 129.886 5.79014 129.936 5.93857C130.084 6.23551 130.208 6.5572 130.332 6.87889C130.455 7.20055 130.579 7.5222 130.728 7.81911C130.771 7.92649 130.813 8.03853 130.857 8.15321C131.016 8.56705 131.188 9.01523 131.42 9.40273C133.174 12.9866 135.516 16.218 137.765 19.3233C138.436 20.2486 139.098 21.1628 139.734 22.0717C141.813 25.1399 143.495 28.4061 144.287 31.8703C144.782 33.9488 144.98 36.0273 145.079 38.1058C145.079 40.1843 144.881 42.3618 144.485 44.5392C143.864 47.9211 142.906 51.2066 141.947 54.4966L141.947 54.4969C141.53 55.925 141.114 57.3538 140.724 58.7918L140.625 58.9898C141.118 59.647 141.816 59.0767 142.491 58.5243L142.492 58.5238C142.63 58.4109 142.767 58.2987 142.902 58.1979C143.495 57.7031 144.089 56.9113 144.287 55.7235C144.386 55.2288 144.535 54.7588 144.683 54.2888L144.683 54.2884L144.683 54.288C144.832 53.818 144.98 53.348 145.079 52.8532C145.261 52.2262 145.452 51.5991 145.643 50.9703L145.643 50.9682L145.644 50.9664L145.644 50.9646L145.645 50.9627L145.645 50.9609L145.646 50.9591L145.647 50.9572L145.647 50.9554L145.648 50.9536L145.648 50.9517L145.649 50.9499L145.649 50.9481L145.65 50.9463L145.65 50.9444L145.651 50.9426L145.651 50.9408L145.652 50.9389L145.653 50.9371L145.653 50.9353C146.393 48.4989 147.141 46.0368 147.455 43.4505C147.751 40.5802 147.751 37.6109 147.356 34.7406C147.306 34.2952 147.232 33.8746 147.158 33.4539L147.157 33.4532C147.083 33.0328 147.009 32.6124 146.96 32.1672C146.927 32.0375 146.895 31.9051 146.862 31.771L146.862 31.7695C146.694 31.0852 146.515 30.3545 146.267 29.6928C145.772 28.0102 145.079 26.4266 144.287 24.942C142.906 22.2654 141.223 19.89 139.568 17.5532L139.566 17.5515L139.565 17.5499L139.564 17.5484C139.323 17.208 139.083 16.8685 138.844 16.529C136.171 12.8669 133.796 9.1058 132.311 4.94881L132.014 4.05802L131.816 3.56314C131.767 3.41469 131.742 3.29098 131.717 3.16727C131.693 3.04354 131.668 2.91981 131.618 2.77133L131.222 1.28669L131.024 0.494881L130.926 0.0989761V0H130.827L130.629 0.197952C130.233 0.544369 129.812 0.866041 129.391 1.18771C128.971 1.50939 128.55 1.83106 128.154 2.17747L127.263 3.06826C127.174 3.15724 127.085 3.26621 126.987 3.3862C126.868 3.53314 126.734 3.69661 126.571 3.86007C124.789 5.93857 123.601 8.21502 122.612 10.6894C121.919 12.57 121.325 14.4505 120.929 16.43C120.533 18.4096 120.236 20.3891 120.236 22.3686C120.236 23.7274 120.342 25.0509 120.448 26.3812L120.448 26.3814C120.52 27.2798 120.592 28.1813 120.632 29.099C121.226 32.0683 122.117 34.9386 123.601 37.6109C124.789 39.6894 126.373 41.7679 128.451 43.2526C130.728 44.7372 133.4 45.529 135.973 45.727C136.208 45.727 136.431 45.7383 136.651 45.7495C137.08 45.7713 137.495 45.7924 137.953 45.727L139.339 45.628L140.229 45.529H140.625H140.823H140.922V45.43V42.3618V41.372C140.922 41.2235 140.897 41.0503 140.873 40.8771C140.848 40.7039 140.823 40.5307 140.823 40.3823C140.625 37.8089 139.833 35.2355 138.349 32.959C137.37 31.3507 136.193 30.0387 135.063 28.7789C134.594 28.2556 134.133 27.7413 133.697 27.2184C132.509 25.8328 131.618 24.3481 131.024 22.7645C130.954 22.4808 130.857 22.1844 130.758 21.8799C130.581 21.3344 130.395 20.7628 130.332 20.1911L130.134 18.9044V17.5188V16.0341C130.233 15.5392 130.233 15.0444 130.134 14.5495C129.936 12.8669 129.045 12.8669 128.154 13.6587ZM12.4511 70.0751C12.0552 70.0751 11.6593 70.2731 11.1644 70.669C10.6696 71.0649 10.2736 71.6587 9.87774 72.5495C9.38286 73.8362 9.08593 77.1024 8.98696 82.3481H7.00744C6.11665 82.3481 5.32484 82.4471 4.63201 82.744C3.93918 83.041 3.54327 83.5359 3.54327 84.4266C3.54327 84.8225 3.64225 85.1195 3.8402 85.3174C4.33508 85.9113 6.11665 86.2082 8.98696 86.2082C9.08593 89.2765 9.28389 92.1468 9.48184 94.9181C9.67979 97.6894 9.77877 100.56 9.77877 103.43C9.77877 104.519 10.1747 105.014 11.0655 105.014C11.5603 105.014 12.1542 104.816 12.6491 104.42C13.144 104.024 13.4409 103.529 13.4409 102.836C13.4409 99.669 13.3419 96.5017 13.144 93.1365C13.0581 91.6767 12.9908 90.4218 12.9341 89.3636C12.8601 87.9825 12.8041 86.9367 12.748 86.2082H14.2327H15.3214C17.202 86.1092 18.1917 85.4164 18.1917 84.0307C18.1917 83.1399 17.3999 82.6451 16.0143 82.5461H12.6491V78.785V78.7849C12.6491 77.3003 12.6491 76.3106 12.748 75.8157C13.045 74.43 13.7378 73.7372 14.8265 73.7372C15.1235 73.7372 15.7173 73.9352 16.6081 74.2321C17.4989 74.529 18.0928 74.727 18.2907 74.727C19.1815 74.727 19.6764 74.1331 19.6764 72.9454C19.6764 71.7577 19.2805 70.9659 18.3897 70.57C17.4989 70.1741 16.4102 69.9761 15.0245 69.9761C14.1216 69.9761 13.4709 70.0181 13.0175 70.0474H13.0173C12.775 70.0631 12.589 70.0751 12.4511 70.0751ZM28.2873 102.638V97.5904C28.2873 93.5324 28.8812 90.6621 29.9699 88.7816C31.1576 87 33.0382 86.1092 35.8095 86.1092C36.4033 86.1092 36.8982 85.9113 37.3931 85.5154C37.888 85.1195 38.0859 84.6246 38.0859 83.9317C38.0859 82.5461 36.7992 81.8532 34.1269 81.8532C32.5433 81.8532 31.0586 82.2491 29.673 83.041C28.2873 83.8328 27.2975 85.1195 26.6047 86.7031C26.6047 86.5051 26.6047 86.1092 26.5057 85.3174C26.5057 84.5256 26.4068 83.9317 26.3078 83.5358C26.2088 83.1399 26.0109 82.6451 25.7139 82.2491C25.417 81.8532 25.0211 81.6553 24.4272 81.6553C23.1405 81.6553 22.4477 82.1502 22.4477 83.2389C22.4477 83.4369 22.5467 84.2287 22.8436 85.4164C23.4375 87.9898 23.9324 91.5529 24.1303 96.0068C24.2663 99.0657 24.4022 101.144 24.474 102.242C24.5068 102.743 24.5262 103.04 24.5262 103.133C24.7242 104.321 25.1201 104.915 25.9119 104.915C26.4068 104.915 27.0006 104.717 27.4955 104.222C27.9904 103.727 28.2873 103.232 28.2873 102.638ZM41.4511 82.5461C41.847 82.1502 42.3419 81.9522 42.7378 81.9522C43.1337 81.9522 43.5296 82.0512 43.7276 82.1502C43.8032 82.2258 43.8788 82.287 43.9434 82.3392C44.0479 82.4237 44.1235 82.4849 44.1235 82.5461C44.1235 82.6451 44.2224 82.9419 44.3214 83.2388L44.3214 83.2389C44.1235 85.8123 44.0245 88.0887 44.0245 90.0683C44.0245 92.0478 44.2225 94.4232 44.7173 96.9966C45.2122 99.57 45.7071 100.956 46.301 100.956C47.1917 100.956 48.2805 100.461 49.6661 99.471C51.0518 98.4812 51.9426 97.4915 52.5364 96.4027C52.1405 91.7509 51.9426 87.6928 51.9426 84.4266C51.9426 83.7338 52.1405 83.1399 52.6354 82.6451C53.1303 82.1502 53.6252 81.9522 54.219 81.9522C55.2088 81.9522 55.7037 82.6451 55.7037 84.0307C55.7037 86.3072 55.9016 89.7713 56.1986 94.3242C56.4955 98.8771 56.8914 101.747 57.2873 102.935C57.3863 103.232 57.3863 103.529 57.3863 103.826C57.3863 104.123 57.1883 104.519 56.6934 104.816C56.1986 105.113 55.7037 105.311 55.0108 105.311C54.318 105.311 53.8231 104.915 53.6252 104.123C53.6165 104.062 53.6078 104 53.599 103.936L53.5774 103.778C53.4899 103.138 53.3802 102.336 53.1303 101.253C50.8539 103.628 48.5774 104.816 46.301 104.816C45.2122 104.816 44.3214 104.42 43.4306 103.628C42.5399 102.836 41.946 101.747 41.4511 100.362C40.5603 97.6894 40.1644 95.1161 40.1644 92.7406C40.1644 90.3652 40.2634 87.4949 40.5603 84.0307C40.7583 83.3379 41.0552 82.942 41.4511 82.5461ZM65.0074 74.8259C64.4136 74.3311 63.9187 74.0341 63.3248 74.0341C61.5433 74.1331 60.7515 74.9249 60.6525 76.4096C60.6525 77.2014 60.9494 77.8942 61.4443 78.3891C61.9392 78.884 62.533 79.1809 63.1269 79.1809C63.7207 79.1809 64.3146 78.884 64.9085 78.2901C65.5023 77.6963 65.7992 77.1024 65.7992 76.5085C65.7992 75.9147 65.5023 75.4198 65.0074 74.8259ZM65.4033 102.836V99.471H65.2054V88.4847L65.4033 85.4164C65.4033 85.0205 65.4033 84.4266 65.3044 83.7338C65.1064 82.3481 64.1166 81.6553 62.4341 81.6553C61.7412 81.6553 61.4443 81.9522 61.3453 82.5461C61.2463 84.1297 61.2463 85.5154 61.2463 86.6041C61.2463 87.6928 61.4443 93.4335 61.8402 103.727C61.9392 104.519 62.3351 104.915 63.1269 104.915C63.7207 104.915 64.2156 104.717 64.7105 104.321C65.2054 103.925 65.4033 103.43 65.4033 102.836ZM72.2327 82.0512H74.7071H75.5979V72.0546C75.5979 71.4608 75.8948 71.0649 76.3897 70.669C76.8846 70.273 77.3794 70.0751 77.8743 70.0751C78.3692 70.0751 78.6661 70.1741 78.9631 70.471C79.26 70.7679 79.359 71.2628 79.359 71.8567V81.9522L85.0006 81.7543C85.9904 81.7543 86.4853 82.3481 86.4853 83.4369C86.4853 84.3277 86.1883 84.9215 85.6934 85.3174C85.1986 85.7133 84.7037 86.0102 84.1098 86.0102H82.4272H79.4579C79.4579 87.2969 79.5569 89.9693 79.8539 93.9283C80.1508 97.8874 80.3487 100.362 80.5467 101.549C80.7446 102.737 80.7446 103.43 80.6457 103.826C80.5467 104.222 80.3487 104.42 80.1508 104.519C79.7549 104.717 79.161 104.816 78.4682 104.816C77.7754 104.816 77.3794 104.42 77.1815 103.628C76.4887 99.372 76.0928 93.5324 75.8948 86.1092H72.5296C70.5501 86.1092 69.6593 85.5154 69.6593 84.4266C69.5603 82.843 70.4511 82.0512 72.2327 82.0512ZM95.3931 81.9522C93.6115 81.9522 92.0279 82.5461 90.6422 83.6348C89.2566 84.7236 88.5638 86.3072 88.8607 88.3857C88.8607 91.157 89.7515 92.8396 91.731 93.6314C92.3037 93.8769 93.2145 94.0547 94.3517 94.2767L94.3519 94.2767L94.352 94.2767L94.6778 94.3404L94.8433 94.373C94.9266 94.3894 95.0109 94.4062 95.0962 94.4232C96.5808 94.7202 97.7685 95.0171 98.4614 95.413C99.1542 95.8089 99.5501 96.5017 99.5501 97.3925C99.5501 98.2833 99.2532 99.0751 98.6593 99.7679C98.0655 100.461 97.2736 100.857 96.1849 100.857C95.0962 100.857 94.0074 100.659 92.9187 100.164C91.731 99.669 91.0381 99.471 90.7412 99.471C89.4545 99.471 88.8607 100.065 88.8607 101.352C88.8607 102.44 89.5535 103.331 90.9392 103.826C92.3248 104.321 94.1064 104.618 96.0859 104.618C98.0655 104.618 99.847 104.123 101.233 102.935C102.618 101.747 103.311 99.8669 103.311 97.1945C103.311 95.413 102.816 94.1263 101.827 93.4335C100.837 92.7406 99.3521 92.2458 97.4716 91.8498C95.4921 91.4539 94.2054 90.9591 93.4136 90.4642C92.6218 89.8703 92.2259 89.1775 92.2259 88.2867C92.2259 87.3959 92.5228 86.7031 93.2156 86.2082C93.8095 85.7133 94.7003 85.5154 95.591 85.5154C96.4818 85.5154 97.5706 85.8123 98.6593 86.4062C99.847 87 100.441 87.2969 100.639 87.2969H101.332C101.629 87.2969 102.024 87.099 102.42 86.8021C102.816 86.5051 103.014 86.1092 103.014 85.5154C103.014 84.4266 102.222 83.6348 100.54 82.942C98.9562 82.2492 97.1747 81.9522 95.3931 81.9522ZM134.687 79.3789C134.687 81.0614 134.192 82.4471 133.301 83.5359C132.41 84.6246 130.926 85.8123 128.946 87.099L128.946 87.0992C129.342 87.693 129.936 88.5837 130.827 89.7713C131.575 90.7698 132.044 91.4885 132.293 91.8685C132.34 91.9406 132.379 92.0005 132.41 92.0478L133.895 94.5222C134.885 92.9386 135.478 91.7509 135.577 90.9591C135.874 89.9693 136.468 89.4744 137.557 89.4744C138.151 89.4744 138.547 89.6724 138.943 89.9693C139.339 90.2662 139.437 90.6621 139.437 91.256C139.437 92.5427 138.151 94.7201 135.676 97.6894C136.666 99.6689 137.458 101.352 137.953 102.737C137.854 103.232 137.656 103.628 137.26 104.024C136.864 104.42 136.468 104.519 135.973 104.519C135.478 104.519 135.083 104.321 134.687 103.925C134.39 103.529 134.192 103.133 134.093 102.638C134.023 102.465 133.954 102.267 133.876 102.044L133.876 102.044L133.876 102.043C133.731 101.632 133.558 101.138 133.301 100.56C131.816 102.143 130.53 103.232 129.54 103.826C128.55 104.42 127.362 104.717 126.076 104.717C124.789 104.717 123.403 104.222 122.117 103.133C120.83 102.143 119.741 100.857 119.147 99.273C118.455 97.8874 118.158 96.5017 118.158 95.215C118.158 93.0376 118.751 91.355 119.84 90.0683C120.929 88.7816 122.513 87.4949 124.69 86.2082C123.205 83.4369 122.414 81.0614 122.414 79.0819C122.414 77.1024 123.007 75.5188 124.195 74.3311C125.383 73.1434 126.868 72.5495 128.55 72.5495C130.233 72.5495 131.717 73.2423 132.905 74.727C134.093 76.1126 134.687 77.6963 134.687 79.3789ZM125.878 100.461C127.56 100.461 129.441 99.471 131.42 97.3925C131.379 97.3105 131.321 97.2285 131.253 97.1324C131.157 96.9966 131.041 96.8326 130.926 96.6007C130.881 96.534 130.832 96.4573 130.777 96.3728C130.589 96.0814 130.342 95.6977 130.035 95.314C129.972 95.2201 129.907 95.1212 129.839 95.0173L129.839 95.0171C129.475 94.4645 129.019 93.7717 128.352 92.9386C127.659 91.9488 126.966 90.8601 126.373 89.6724L125.977 88.9795C125.538 89.3307 125.138 89.6235 124.794 89.8752L124.794 89.8753C124.362 90.191 124.02 90.4419 123.799 90.6621C122.315 91.9488 121.622 93.4335 121.622 95.0171C121.622 96.6997 122.216 98.0853 123.304 99.273C124.096 100.164 124.888 100.461 125.878 100.461ZM128.55 76.3106C126.868 76.3106 125.977 77.6963 125.878 80.3686C126.076 81.7543 126.472 83.1399 127.263 84.5256C129.54 83.1399 130.629 81.8533 130.629 80.4676C130.629 79.0819 130.431 78.0922 129.936 77.3004C129.54 76.6075 129.045 76.3106 128.55 76.3106ZM171.308 82.2491C171.11 81.9522 170.813 81.7543 170.318 81.7543C169.427 81.7543 168.734 82.2491 168.141 83.1399C167.052 85.6143 165.765 89.6724 164.083 95.413C163.885 96.0068 163.786 96.4027 163.786 96.6007C163.093 94.7201 161.905 92.1468 160.222 88.8805C159.631 87.7316 159.124 86.7419 158.7 85.9114L158.699 85.9106C157.917 84.3806 157.411 83.391 157.154 82.942C156.758 82.3481 156.362 82.0512 155.769 82.0512C155.175 82.0512 154.68 82.2491 154.284 82.744C153.789 83.1399 153.591 83.7338 153.591 84.1297C153.591 84.5256 153.69 85.1195 153.987 85.7133L153.988 85.7144L153.988 85.7145C154.286 86.3104 155.473 88.6854 157.451 92.7406C159.431 96.7986 161.014 100.461 162.004 103.727C162.301 104.42 162.598 104.816 163.192 104.816C164.28 104.816 165.072 104.222 165.567 103.133C165.719 102.678 165.929 101.875 166.241 100.678L166.241 100.677C166.336 100.312 166.441 99.9104 166.557 99.471C166.703 98.9141 166.833 98.4007 166.95 97.9357L166.95 97.9339L166.95 97.9338C167.228 96.8296 167.437 95.9993 167.646 95.5119C167.903 94.9122 168.16 93.9417 168.481 92.7288C168.531 92.5404 168.582 92.3463 168.635 92.1468C169.229 90.0683 170.219 87.198 171.605 83.7338V83.2389C171.605 82.843 171.506 82.5461 171.308 82.2491ZM181.007 82.2491C182.69 82.2491 184.373 82.744 185.956 83.7338C187.54 84.7235 188.332 86.0102 188.332 87.4949C188.332 88.9795 187.738 90.3652 186.451 91.7509C185.164 93.1365 183.482 93.9283 181.403 94.2253C180.513 94.3242 179.127 94.4232 177.345 94.4232C177.741 97.1945 178.434 98.9761 179.424 99.8669C179.721 100.263 180.216 100.362 180.711 100.362C182.69 100.362 184.373 99.7679 185.758 98.4812C187.144 97.1945 188.134 96.6007 188.629 96.6007C188.926 96.6007 189.321 96.7986 189.816 97.2935C190.311 97.7884 190.608 98.1843 190.608 98.6792C190.608 99.57 189.618 100.758 187.54 102.341C186.649 103.133 185.56 103.727 184.274 104.222C182.987 104.717 181.799 105.014 180.711 105.014C177.939 105.014 175.861 103.232 174.475 99.57C173.584 97.2935 173.188 94.9181 173.188 92.1468C173.188 89.4744 173.782 87.099 175.069 85.2184C176.257 83.1399 178.335 82.2491 181.007 82.2491ZM181.304 85.5154C180.117 85.5154 179.028 86.2082 178.137 87.5939C177.84 88.0887 177.543 89.1775 177.246 90.8601C181.799 90.8601 184.076 89.7713 184.076 87.4949C183.977 86.2082 183.086 85.5154 181.304 85.5154ZM202.881 104.816C204.663 104.816 206.147 104.123 207.335 102.737C207.434 104.222 207.533 106.795 207.335 110.655C207.335 114.515 206.246 116.396 203.871 116.396C203.178 116.396 201.891 116 200.209 115.307C198.526 114.614 197.437 114.218 196.943 114.218C196.448 114.218 196.052 114.317 195.656 114.713C195.26 115.109 195.062 115.604 195.062 116.297C195.062 117.188 195.953 118.078 197.734 118.771C199.516 119.464 201.199 119.86 202.881 119.86C205.751 119.86 207.83 119.167 209.216 117.881C210.601 116.594 211.294 114.515 211.294 111.744C211.294 110.061 211.195 107.587 210.997 104.222C210.799 100.857 210.7 98.2833 210.7 96.4027L210.799 92.4437C210.799 89.0785 210.403 86.6041 209.513 84.9215C208.523 83.0409 206.642 82.1502 203.871 82.1502C201.1 82.1502 198.823 83.1399 196.943 85.2184C195.062 87.2969 194.171 90.0683 194.171 93.4334C194.171 97.7884 195.557 101.055 198.229 103.133C199.516 104.222 201.1 104.816 202.881 104.816ZM206.147 87.4949C206.84 88.4846 207.236 90.0683 207.236 92.4437C207.236 94.8191 207.038 96.6007 206.642 97.8874C206.147 99.372 204.96 100.164 203.178 100.164C201.397 100.164 200.11 99.471 199.219 98.2833C198.328 97.0956 197.932 95.413 197.932 93.3345C197.932 91.256 198.427 89.5734 199.318 88.1877C200.209 86.802 201.396 86.1092 202.881 86.1092C204.366 86.1092 205.455 86.5051 206.147 87.4949ZM228.912 102.737C227.724 104.123 226.24 104.816 224.458 104.816C222.676 104.816 221.093 104.222 219.806 103.133C217.134 101.055 215.748 97.7884 215.748 93.4334C215.748 90.0683 216.639 87.2969 218.519 85.2184C220.4 83.1399 222.676 82.1502 225.448 82.1502C228.219 82.1502 230.1 83.0409 231.089 84.9215C231.98 86.6041 232.376 89.0785 232.376 92.4437L232.277 96.4027C232.277 98.2833 232.376 100.857 232.574 104.222C232.772 107.587 232.871 110.061 232.871 111.744C232.871 114.515 232.178 116.594 230.792 117.881C229.407 119.167 227.328 119.86 224.458 119.86C222.775 119.86 221.093 119.464 219.311 118.771C217.53 118.078 216.639 117.188 216.639 116.297C216.639 115.604 216.837 115.109 217.233 114.713C217.629 114.317 218.025 114.218 218.519 114.218C219.014 114.218 220.103 114.614 221.786 115.307C223.468 116 224.755 116.396 225.448 116.396C227.823 116.396 228.912 114.515 228.912 110.655C229.11 106.795 229.011 104.222 228.912 102.737ZM228.912 92.4437C228.912 90.0683 228.516 88.4846 227.823 87.4949C227.13 86.5051 226.042 86.1092 224.557 86.1092C223.072 86.1092 221.885 86.802 220.994 88.1877C220.103 89.5734 219.608 91.256 219.608 93.3345C219.608 95.413 220.004 97.0956 220.895 98.2833C221.786 99.471 223.072 100.164 224.854 100.164C226.635 100.164 227.823 99.372 228.318 97.8874C228.714 96.6007 228.912 94.8191 228.912 92.4437ZM241.482 74.8259C240.888 74.3311 240.393 74.0341 239.799 74.0341C238.018 74.1331 237.226 74.9249 237.127 76.4096C237.127 77.2014 237.424 77.8942 237.919 78.3891C238.414 78.884 239.007 79.1809 239.601 79.1809C240.195 79.1809 240.789 78.884 241.383 78.2901C241.977 77.6963 242.274 77.1024 242.274 76.5085C242.274 75.9147 241.977 75.4198 241.482 74.8259ZM241.878 102.836V99.471H241.68V88.4847L241.878 85.4164V85.4162C241.878 85.0203 241.878 84.4265 241.779 83.7338C241.581 82.3481 240.591 81.6553 238.908 81.6553C238.216 81.6553 237.919 81.9522 237.82 82.5461C237.721 84.1297 237.721 85.5154 237.721 86.6041C237.721 87.6928 237.919 93.4335 238.315 103.727C238.414 104.519 238.809 104.915 239.601 104.915C240.195 104.915 240.69 104.717 241.185 104.321C241.68 103.925 241.878 103.43 241.878 102.836ZM254.448 82.2491C256.13 82.2491 257.813 82.744 259.397 83.7338C260.98 84.7235 261.772 86.0102 261.772 87.4949C261.772 88.9795 261.178 90.3652 259.891 91.7509C258.605 93.1365 256.922 93.9283 254.844 94.2253C253.953 94.3242 252.567 94.4232 250.786 94.4232C251.181 97.1945 251.874 98.9761 252.864 99.8669C253.161 100.263 253.656 100.362 254.151 100.362C256.13 100.362 257.813 99.7679 259.199 98.4812C260.584 97.1945 261.574 96.6007 262.069 96.6007C262.366 96.6007 262.762 96.7986 263.257 97.2935C263.751 97.7884 264.048 98.1843 264.048 98.6792C264.048 99.57 263.059 100.758 260.98 102.341C260.089 103.133 259.001 103.727 257.714 104.222C256.427 104.717 255.24 105.014 254.151 105.014C251.379 105.014 249.301 103.232 247.915 99.57C247.024 97.2935 246.629 94.9181 246.629 92.1468C246.629 89.4744 247.222 87.099 248.509 85.2184C249.796 83.1399 251.775 82.2491 254.448 82.2491ZM254.745 85.5154C253.557 85.5154 252.468 86.2082 251.577 87.5939C251.28 88.0887 250.984 89.1775 250.687 90.8601C255.24 90.8601 257.516 89.7713 257.516 87.4949C257.417 86.2082 256.526 85.5154 254.745 85.5154ZM274.441 81.9522C272.659 81.9522 271.076 82.5461 269.69 83.6348C268.304 84.7236 267.612 86.3072 267.908 88.3857C267.908 91.157 268.799 92.8396 270.779 93.6314C271.351 93.8768 272.262 94.0546 273.399 94.2766L273.4 94.2767L273.4 94.2767C273.638 94.3233 273.887 94.3718 274.144 94.4232C275.629 94.7202 276.816 95.0171 277.509 95.413C278.202 95.8089 278.598 96.5017 278.598 97.3925C278.598 98.2833 278.301 99.0751 277.707 99.7679C277.113 100.461 276.321 100.857 275.233 100.857C274.144 100.857 273.055 100.659 271.966 100.164C270.779 99.669 270.086 99.471 269.789 99.471C268.502 99.471 267.908 100.065 267.908 101.352C267.908 102.44 268.601 103.331 269.987 103.826C271.373 104.321 273.154 104.618 275.134 104.618C277.113 104.618 278.895 104.123 280.28 102.935C281.666 101.747 282.359 99.8669 282.359 97.1945C282.359 95.413 281.864 94.1263 280.874 93.4335C279.885 92.7406 278.4 92.2458 276.519 91.8498C274.54 91.4539 273.253 90.9591 272.461 90.4642C271.67 89.8703 271.274 89.1775 271.274 88.2867C271.274 87.3959 271.571 86.7031 272.263 86.2082C272.857 85.7133 273.748 85.5154 274.639 85.5154C275.53 85.5154 276.618 85.8123 277.707 86.4062C278.895 87 279.489 87.2969 279.687 87.2969H280.379C280.676 87.2969 281.072 87.099 281.468 86.8021C281.864 86.5051 282.062 86.1092 282.062 85.5154C282.062 84.4266 281.27 83.6348 279.588 82.942C278.004 82.2492 276.222 81.9522 274.441 81.9522ZM163.192 28.4061C163.786 26.9215 164.478 25.3379 165.666 24.2491C166.656 24.2491 167.448 24.744 167.052 26.0307C166.953 26.3276 166.755 26.6246 166.557 26.9215C166.458 27.1194 166.26 27.4164 166.062 27.7133C165.914 28.0102 165.79 28.2823 165.666 28.5545L165.666 28.5554L165.665 28.556L165.665 28.5564C165.542 28.828 165.418 29.0996 165.27 29.3959C165.225 29.6197 165.14 29.8637 165.051 30.1188C164.943 30.4278 164.83 30.7531 164.775 31.0785C164.599 31.7857 164.457 32.528 164.308 33.3054C164.208 33.8336 164.104 34.378 163.984 34.9386C163.588 36.8191 162.697 38.6007 161.509 39.9863C161.361 40.1348 161.212 40.308 161.064 40.4813C160.915 40.6545 160.767 40.8276 160.618 40.9761L159.629 41.9659C159.495 42.08 159.373 42.1869 159.252 42.2927C158.743 42.7375 158.254 43.1649 157.055 44.0444L155.175 45.529L154.68 45.9249L154.581 46.0239H154.482L154.383 45.7269L154.185 44.5392L153.492 40.4812C153.461 39.9495 153.42 39.408 153.378 38.8597V38.8595V38.8594V38.8592V38.8591V38.8589V38.8587V38.8585V38.8583V38.858V38.8578V38.8575L153.378 38.8572C153.288 37.671 153.195 36.4532 153.195 35.2355L153.294 33.9488C153.294 33.4539 153.393 33.058 153.492 32.6621L153.69 31.3754C153.69 31.1115 153.778 30.8475 153.866 30.5836C153.91 30.4516 153.954 30.3197 153.987 30.1877C154.482 28.1092 155.472 26.1297 156.659 24.3481L157.55 23.4573C157.699 23.3089 157.847 23.1851 157.996 23.0614C158.144 22.9377 158.292 22.814 158.441 22.6655L159.332 21.7747L160.42 20.785C162.369 19.2603 164.607 18.3881 166.762 17.5479C167.126 17.4063 167.487 17.2656 167.844 17.1229C168.042 17.0239 168.239 16.9497 168.437 16.8755L168.437 16.8754C168.635 16.8012 168.833 16.7269 169.031 16.628L170.417 16.1331L172.397 15.3413L172.891 15.1433H172.99V15.2423V15.3413L173.089 15.6382L173.287 16.7269C173.683 18.5085 173.782 19.0034 173.881 19.9932L174.178 22.6655C174.376 25.9317 174.277 29.1979 173.683 32.3652C173.188 34.7406 172.397 37.0171 171.11 39.0955C169.922 41.174 168.141 42.9556 166.26 44.4403C165.909 44.6877 165.563 44.9352 165.219 45.1809C163.913 46.1143 162.643 47.0219 161.311 47.8054C160.587 48.2248 159.833 48.5853 159.084 48.9437C157.888 49.5159 156.704 50.0826 155.67 50.8737C155.076 51.2696 154.581 51.6655 154.185 52.1604C153.69 52.7542 153.195 53.0512 152.601 53.0512C152.4 53.0512 152.193 53.0767 151.988 53.1019C151.389 53.1757 150.818 53.2459 150.523 52.6553L150.622 52.5563C151.513 50.9727 152.898 49.686 154.383 48.5973C155.868 47.6075 157.451 46.7167 158.936 45.9249C161.608 44.4403 164.182 42.9556 166.26 40.9761C168.042 39.3925 169.526 37.413 170.318 35.1365C171.407 32.1672 171.803 28.901 171.704 25.5358V24.4471C171.506 22.6655 171.308 20.8839 171.011 19.1024L170.912 18.8054H170.813L170.714 18.9044L169.427 19.3993C168.833 19.6302 168.229 19.8502 167.624 20.0701C166.414 20.51 165.204 20.9499 164.083 21.4778C161.41 22.6655 159.134 24.5461 157.847 27.0205C156.461 29.4949 156.065 32.3652 155.966 35.2355C155.966 35.4087 155.96 35.5819 155.954 35.7552C155.936 36.2748 155.917 36.7944 156.065 37.314V37.413C156.065 38.3036 156.164 39.1942 156.263 40.0849L156.263 40.0853L156.362 40.7781V40.8771V40.9761H156.461H156.56H156.659L156.758 40.8771L157.55 40.2833C158.54 39.4915 159.431 38.6007 160.222 37.6109C161.113 36.4232 161.608 35.0375 161.905 33.4539L161.935 33.2934L161.96 33.1571L161.978 33.0631C162.253 31.5807 162.555 29.9517 163.192 28.4061ZM181.502 117.386C179.593 117.244 177.685 117.355 175.776 117.466C175.012 117.511 174.249 117.555 173.485 117.584L173.199 117.593H173.199H173.198H173.198H173.198H173.198H173.197H173.197H173.197H173.197H173.197H173.196H173.196C167.555 117.788 162.007 117.98 156.362 117.98H142.209C140.896 117.98 139.583 118.011 138.277 118.043C136.333 118.091 134.403 118.138 132.509 118.078H132.311C131.349 118.226 130.443 118.209 129.509 118.19C129.193 118.184 128.875 118.177 128.55 118.177C124.314 118.217 120.078 118.32 115.842 118.423C109.487 118.577 103.133 118.732 96.7788 118.672C93.3146 118.573 89.9494 118.573 86.4852 118.573L67.4818 118.771C67.1849 118.771 66.8632 118.747 66.5415 118.722C66.2199 118.697 65.8982 118.672 65.6013 118.672C63.6254 118.672 61.6386 118.661 59.6481 118.65H59.6467H59.6463H59.646H59.6456H59.6453H59.6449H59.6446H59.6442H59.6439H59.6435H59.6431H59.6428H59.6424H59.6421H59.6417H59.6414H59.641C55.6514 118.628 51.6469 118.606 47.6866 118.672C44.655 118.738 41.6673 118.716 38.6651 118.694H38.6636H38.6621H38.6606H38.6592H38.6577H38.6562H38.6547H38.6533H38.6518H38.6503H38.6489H38.6474H38.646H38.6445H38.6431H38.6416H38.6402C37.1419 118.683 35.6398 118.672 34.1269 118.672C32.382 118.672 30.6261 118.683 28.8665 118.694C25.3364 118.716 21.7915 118.738 18.2907 118.672C17.08 118.672 15.8733 118.664 14.6698 118.656C9.87147 118.625 5.12375 118.593 0.376025 119.068H0.178073C-0.404151 119.65 0.551343 120.093 1.45864 120.513L1.45893 120.513L1.45905 120.513L1.45911 120.513C1.63131 120.593 1.80177 120.672 1.95964 120.751C2.75145 121.147 3.84019 121.345 5.22585 121.246C6.41348 121.147 7.6011 121.147 8.78872 121.147H8.78899C10.6563 121.147 12.5236 121.22 14.403 121.294H14.4031H14.4033H14.4035H14.4037H14.4038H14.404H14.4042H14.4044H14.4045H14.4047H14.4049H14.4051H14.4053H14.4055H14.4057H14.4059H14.4061C16.3112 121.368 18.2287 121.444 20.1712 121.444C22.3992 121.444 24.5838 121.357 26.7824 121.269H26.7825H26.7827H26.7828H26.783H26.7831H26.7833H26.7835H26.7836H26.7838H26.784H26.7842H26.7844H26.7846H26.7848H26.7851H26.7853H26.7855C27.9068 121.225 29.0317 121.18 30.1678 121.147C34.1269 121.097 38.0612 121.073 41.9955 121.048C45.9298 121.023 49.8641 120.998 53.8231 120.949C56.5575 120.949 59.2918 120.974 62.0136 120.999C64.7105 121.023 67.3951 121.048 70.0552 121.048C76.0927 121.048 82.1303 121.048 88.0688 120.85C90.0631 120.807 92.0392 120.82 94.0126 120.832C96.6426 120.848 99.2679 120.864 101.926 120.751C102.424 120.732 102.926 120.709 103.431 120.686L103.432 120.686L103.434 120.686L103.436 120.686C105.534 120.59 107.672 120.492 109.745 120.652C111.823 120.533 113.902 120.521 115.98 120.509C117.366 120.501 118.751 120.493 120.137 120.454C121.522 120.454 122.908 120.479 124.293 120.503L124.294 120.503L124.295 120.503C125.681 120.528 127.066 120.553 128.451 120.553C131.955 120.434 135.458 120.422 138.962 120.41H138.962C141.298 120.402 143.634 120.395 145.97 120.355L146.256 120.35L146.257 120.35C151.905 120.253 157.646 120.154 163.291 119.959C167.844 119.86 172.396 119.662 176.949 119.464C177.394 119.427 177.853 119.432 178.316 119.436C179.087 119.444 179.869 119.452 180.612 119.266C182.789 119.068 182.492 118.078 181.502 117.386ZM287.274 117.536C287.803 117.438 288.383 117.33 288.891 117.584C289.089 118.375 289.188 119.365 288.792 119.563C288.58 119.775 288.368 119.735 288.156 119.694C288.071 119.678 287.986 119.662 287.902 119.662C287.357 119.662 286.813 119.687 286.268 119.712C285.724 119.736 285.18 119.761 284.635 119.761H280.577C280.116 119.761 279.654 119.75 279.192 119.739C278.268 119.717 277.344 119.695 276.42 119.761C276.344 119.75 276.268 119.739 276.194 119.728L276.19 119.728C275.593 119.641 275.056 119.563 274.441 119.563C274.214 119.563 273.993 119.557 273.776 119.55L273.776 119.55C273.146 119.532 272.556 119.515 271.966 119.662C271.274 119.464 270.68 119.563 270.086 119.662C269.542 119.712 268.997 119.687 268.453 119.662C267.908 119.637 267.364 119.613 266.82 119.662C265.434 119.761 263.949 119.86 262.564 119.86C262.135 119.86 261.706 119.849 261.277 119.838C260.419 119.816 259.561 119.794 258.704 119.86C256.988 119.95 255.354 120.123 253.652 120.303L253.651 120.303L253.161 120.355C252.765 120.404 252.369 120.479 251.974 120.553L251.973 120.553L251.973 120.553C251.577 120.627 251.181 120.701 250.786 120.751C250.291 120.861 249.796 120.818 249.301 120.775C248.905 120.741 248.509 120.707 248.113 120.751C247.878 120.751 247.705 120.813 247.496 120.888C247.466 120.899 247.435 120.91 247.403 120.921L247.38 120.929C247.361 120.936 247.341 120.942 247.321 120.949C247.024 121.048 246.728 120.949 246.53 120.553C246.492 120.49 246.453 120.427 246.413 120.364C246.14 119.928 245.849 119.463 245.936 118.771H246.035C247.155 118.168 248.424 118.09 249.648 118.015L249.65 118.015C249.832 118.003 250.013 117.992 250.192 117.98C250.835 117.93 251.454 117.881 252.072 117.831C252.691 117.782 253.31 117.732 253.953 117.683C254.459 117.632 254.991 117.607 255.536 117.582C256.056 117.558 256.588 117.533 257.12 117.485C258.506 117.287 259.99 117.287 261.376 117.287C261.475 117.287 261.549 117.311 261.623 117.336C261.698 117.361 261.772 117.386 261.871 117.386C263.356 117.287 264.84 117.188 266.325 117.188C267.216 117.188 268.007 117.188 268.799 117.287C270.133 117.393 271.495 117.299 272.855 117.204C274.018 117.124 275.18 117.043 276.321 117.089C276.42 117.089 276.519 117.111 276.618 117.133C276.816 117.177 277.014 117.221 277.212 117.089H277.311C277.902 117.236 278.437 117.219 279 117.2C279.192 117.194 279.386 117.188 279.588 117.188C280.132 117.237 280.701 117.287 281.27 117.336C281.839 117.386 282.408 117.435 282.953 117.485C283.989 117.633 284.97 117.615 285.978 117.596C286.318 117.59 286.661 117.584 287.011 117.584C287.097 117.569 287.185 117.553 287.274 117.536ZM16.905 143.119C16.905 144.307 16.7071 145.297 16.4102 146.188C16.0143 147.177 15.5194 147.969 14.7276 148.563C13.9358 149.157 13.045 149.454 11.8573 149.454C11.2634 149.454 10.7685 149.355 10.2736 149.157C9.77876 148.959 9.38286 148.662 9.08593 148.266H8.98695V148.365V149.157C8.98695 149.355 8.88797 149.355 8.789 149.355H7.1064C6.90845 149.355 6.90845 149.256 6.90845 149.157V133.024C6.90845 132.826 7.00743 132.826 7.1064 132.826H8.88797C9.08593 132.826 9.08593 132.925 9.08593 133.024V138.369V138.468H9.1849C9.58081 138.072 9.97671 137.775 10.4716 137.577C10.9665 137.379 11.4614 137.28 11.9562 137.28C13.1439 137.28 14.1337 137.577 14.9255 138.171C15.7173 138.765 16.2122 139.556 16.6081 140.645C16.8061 141.041 16.905 142.031 16.905 143.119ZM14.6286 143.218C14.6286 141.932 14.3317 140.843 13.8368 140.051C13.3419 139.259 12.6491 138.863 11.7583 138.863C10.8675 138.863 10.1747 139.259 9.77876 140.051C9.38285 140.744 9.1849 141.833 9.1849 143.119C9.1849 144.406 9.38285 145.396 9.77876 146.089C10.2736 146.98 10.9665 147.375 11.8573 147.375C12.946 147.375 13.6388 146.98 14.1337 146.089C14.4306 145.396 14.6286 144.406 14.6286 143.218ZM24.5262 133.717C24.5262 134.113 24.6252 134.509 24.9221 134.805C25.219 135.102 25.6149 135.201 26.0108 135.201C26.4067 135.201 26.8027 135.102 27.0996 134.805C27.3965 134.509 27.4955 134.113 27.4955 133.717C27.4955 133.321 27.3965 132.925 27.0996 132.628C26.8027 132.331 26.4067 132.232 26.0108 132.232C25.6149 132.232 25.219 132.331 24.9221 132.628C24.6252 132.925 24.5262 133.321 24.5262 133.717ZM24.9221 137.379V148.959C24.9221 149.058 24.9221 149.107 24.9469 149.132C24.9716 149.157 25.0211 149.157 25.1201 149.157H26.9016C27.0006 149.157 27.0996 149.157 27.0996 148.959V137.379C27.0996 137.28 27.0996 137.181 26.9016 137.181H25.1201C25.0211 137.181 24.9221 137.181 24.9221 137.379ZM37.3931 148.563C36.5023 147.969 35.9085 147.177 35.6115 146.089C35.3146 145.198 35.2156 144.307 35.2156 143.218C35.2156 142.13 35.3146 141.14 35.6115 140.348C36.0074 139.259 36.6013 138.468 37.3931 137.874C38.2839 137.28 39.2736 136.983 40.4614 136.983C41.6491 136.983 42.6388 137.28 43.4306 137.874C44.3214 138.468 44.9153 139.259 45.2122 140.348C45.5091 141.14 45.6081 142.13 45.6081 143.218C45.6081 144.307 45.5091 145.297 45.2122 146.188C44.8163 147.276 44.2225 148.068 43.4306 148.662C42.5399 149.256 41.5501 149.553 40.4614 149.553C39.2736 149.454 38.2839 149.157 37.3931 148.563ZM42.1439 146.881C42.6388 146.485 42.9358 145.99 43.1337 145.396C43.3317 144.802 43.4306 144.01 43.4306 143.119C43.4306 142.229 43.3317 141.536 43.2327 140.942C43.0347 140.249 42.6388 139.754 42.2429 139.457C41.847 139.16 41.1542 138.962 40.4614 138.962C39.7685 138.962 39.2736 139.16 38.7788 139.457C38.2839 139.754 37.987 140.348 37.789 140.942C37.591 141.536 37.4921 142.229 37.4921 143.119C37.4921 144.01 37.591 144.802 37.789 145.396C37.987 146.089 38.2839 146.584 38.7788 146.881C39.2736 147.276 39.8675 147.375 40.5603 147.375C41.0552 147.474 41.6491 147.276 42.1439 146.881ZM75.6969 149.157C75.7958 149.157 75.8948 149.157 75.8948 149.058C75.8948 149.058 75.8948 148.959 75.9938 148.761C75.2762 147.884 74.6871 147.2 74.1748 146.605L74.1734 146.603L74.1728 146.602L74.1727 146.602L74.1718 146.601L74.1714 146.601C74.0489 146.458 73.9307 146.321 73.8163 146.188C73.7173 146.089 73.7173 145.99 73.7173 145.99L73.8112 145.88C74.3836 145.213 75.0402 144.448 75.6969 143.416C75.7958 143.317 75.6969 143.218 75.5979 143.119L74.2122 142.328C74.1132 142.229 74.0143 142.328 73.9153 142.427C73.6255 142.716 73.2826 143.165 72.8479 143.735L72.8474 143.735C72.6884 143.943 72.5171 144.168 72.3317 144.406H72.2327H72.1337L72.0347 144.307C71.0386 143.169 70.2471 142.235 69.6602 141.542L69.6595 141.542C69.4303 141.271 69.2322 141.038 69.0655 140.843C68.9665 140.843 68.9665 140.744 69.0655 140.744C70.0552 140.051 70.847 139.358 71.4409 138.666C72.0347 137.874 72.3317 137.082 72.3317 136.092C72.3317 135.003 71.8368 134.014 71.045 133.321C70.2532 132.628 69.1644 132.232 67.8777 132.232C66.9869 132.232 66.2941 132.43 65.6013 132.727C65.0074 133.123 64.5126 133.519 64.1166 134.113C63.8197 134.706 63.6218 135.399 63.6218 136.092C63.6218 136.686 63.7207 137.28 64.0177 137.874C64.3146 138.468 64.9085 139.259 65.7992 140.348C65.8982 140.348 65.8982 140.447 65.7992 140.447C64.8095 141.14 63.9187 141.833 63.3248 142.625C62.731 143.416 62.434 144.307 62.434 145.396C62.434 146.683 62.9289 147.672 63.8197 148.365C64.7105 149.058 65.8982 149.355 67.2839 149.355C68.1747 149.355 68.9665 149.256 69.7583 148.959C70.5501 148.761 71.2429 148.266 72.0347 147.672C72.0347 147.573 72.1337 147.672 72.1337 147.672L73.3214 149.058C73.4204 149.157 73.5194 149.157 73.6184 149.157H75.6969ZM70.748 146.089V146.188C69.5603 147.078 68.3726 147.474 67.2839 147.573C66.4921 147.573 65.8982 147.375 65.4033 146.98C64.9084 146.584 64.7105 146.089 64.7105 145.495C64.7105 144.802 64.9085 144.208 65.3044 143.713C65.7003 143.218 66.3931 142.625 67.1849 142.13C67.1849 142.031 67.2839 142.13 67.2839 142.13L69.0655 144.109C69.096 144.14 69.1455 144.199 69.2139 144.28C69.3669 144.462 69.6143 144.757 69.9562 145.099L70.748 146.089ZM65.8982 136.389C65.8982 135.795 66.0962 135.3 66.4921 135.003C66.888 134.706 67.3829 134.509 67.9767 134.509C68.5706 134.509 69.0654 134.706 69.4613 135.003C69.8573 135.3 70.0552 135.696 70.0552 136.29C70.0552 136.785 69.8573 137.28 69.4613 137.775C69.0654 138.27 68.4716 138.764 67.6798 139.259C67.6798 139.358 67.5808 139.259 67.5808 139.259C67.4427 139.082 67.3124 138.916 67.1908 138.761L67.1895 138.76C66.7018 138.139 66.3535 137.696 66.1951 137.379C65.9972 137.082 65.8982 136.686 65.8982 136.389ZM95.0962 148.563C94.2054 147.969 93.6115 147.177 93.3146 146.089C93.0177 145.198 92.9187 144.307 92.9187 143.218C92.9187 142.13 93.0177 141.14 93.3146 140.348C93.7105 139.259 94.3044 138.468 95.0962 137.874C95.9869 137.28 96.9767 136.983 98.1644 136.983C99.3521 136.983 100.342 137.28 101.134 137.874C102.024 138.468 102.618 139.259 102.915 140.348C103.212 141.14 103.311 142.13 103.311 143.218C103.311 144.307 103.212 145.297 102.915 146.188C102.519 147.276 101.926 148.068 101.134 148.662C100.243 149.256 99.2532 149.553 98.1644 149.553C96.9767 149.454 95.9869 149.157 95.0962 148.563ZM99.847 146.881C100.342 146.485 100.639 145.99 100.837 145.396C101.035 144.802 101.134 144.01 101.134 143.119C101.134 142.229 101.035 141.536 100.936 140.942C100.738 140.249 100.342 139.754 99.946 139.457C99.5501 139.16 98.8573 138.962 98.1644 138.962C97.4716 138.962 96.9767 139.16 96.4818 139.457C95.987 139.754 95.69 140.348 95.4921 140.942C95.2941 141.536 95.1951 142.229 95.1951 143.119C95.1951 144.01 95.2941 144.802 95.4921 145.396C95.69 146.089 95.987 146.584 96.4818 146.881C96.9767 147.276 97.5706 147.375 98.2634 147.375C98.7583 147.474 99.3521 147.276 99.847 146.881ZM117.96 137.577C118.059 137.379 117.96 137.28 117.861 137.28C117.366 137.082 116.97 136.983 116.475 136.983C115.188 136.983 114.199 137.577 113.506 138.666H113.407V138.567V137.28C113.407 137.181 113.407 137.082 113.209 137.082H111.427C111.328 137.082 111.229 137.082 111.229 137.28V148.86C111.229 148.959 111.229 149.058 111.427 149.058H113.209C113.308 149.058 113.407 149.058 113.407 148.86V141.932C113.407 141.14 113.605 140.546 114.1 140.051C114.594 139.556 115.188 139.259 115.98 139.259H116.277C116.673 139.259 116.97 139.358 117.267 139.457C117.465 139.556 117.564 139.457 117.564 139.358L117.96 137.577ZM132.014 137.181H133.796C133.994 137.181 133.994 137.28 133.994 137.379V148.662C133.994 150.543 133.499 151.928 132.41 152.819C131.321 153.611 129.837 154.007 128.055 154.007H126.867C126.67 154.007 126.67 153.908 126.67 153.71L126.769 152.027C126.769 151.928 126.769 151.928 126.867 151.829C126.867 151.829 126.966 151.73 127.065 151.829H128.055C129.441 151.829 130.332 151.532 131.024 151.038C131.717 150.543 131.915 149.652 131.915 148.464V148.068V147.969H131.816C131.123 148.761 130.134 149.157 128.847 149.157C127.857 149.157 126.867 148.86 126.076 148.365C125.284 147.87 124.69 147.078 124.393 145.99C124.195 145.297 124.096 144.307 124.096 143.119C124.096 141.833 124.195 140.744 124.492 140.051C124.789 139.061 125.284 138.369 126.076 137.775C126.867 137.181 127.758 136.884 128.748 136.884C130.035 136.884 131.024 137.28 131.816 138.072H131.915V137.973V137.28C131.717 137.181 131.816 137.181 132.014 137.181ZM131.717 144.505V143.119V141.734C131.717 141.585 131.693 141.462 131.668 141.338C131.643 141.214 131.618 141.09 131.618 140.942C131.519 140.348 131.222 139.853 130.728 139.457C130.332 139.061 129.738 138.863 129.045 138.863C128.352 138.863 127.857 139.061 127.362 139.457C126.867 139.853 126.571 140.348 126.373 140.942C126.175 141.437 126.076 142.13 126.076 143.119C126.076 144.208 126.175 145 126.274 145.396C126.472 145.99 126.769 146.485 127.164 146.881C127.659 147.276 128.154 147.474 128.847 147.474C129.54 147.474 130.134 147.276 130.53 146.881C130.926 146.485 131.222 145.99 131.42 145.396C131.717 145.099 131.717 144.802 131.717 144.505ZM150.622 138.863C150.226 138.27 149.632 137.775 148.939 137.478C148.246 137.082 147.356 136.983 146.663 136.983C145.376 136.983 144.287 137.28 143.396 137.874C142.506 138.468 142.011 139.259 141.912 140.15C141.912 140.249 141.912 140.348 142.11 140.348L143.99 140.645C144.188 140.645 144.287 140.645 144.287 140.447C144.386 139.952 144.683 139.655 145.079 139.358C145.475 139.061 145.97 138.962 146.663 138.962C147.553 138.962 148.147 139.16 148.543 139.556C148.939 139.853 149.137 140.447 149.137 141.14V141.734L149.137 141.761L149.137 141.771L149.136 141.783C149.135 141.801 149.132 141.813 149.125 141.82C149.112 141.833 149.088 141.833 149.038 141.833H146.366C144.782 141.833 143.594 142.229 142.704 142.921C141.813 143.614 141.417 144.604 141.417 145.792C141.417 146.98 141.813 147.87 142.605 148.464C143.298 149.058 144.287 149.355 145.475 149.355C146.168 149.355 146.861 149.256 147.455 149.058C148.048 148.86 148.543 148.464 148.939 148.068L148.939 148.068C148.972 148.035 148.994 148.013 149.009 148.002C149.018 147.995 149.025 147.993 149.029 147.995C149.038 147.999 149.038 148.023 149.038 148.068V148.959C149.038 149.058 149.038 149.157 149.236 149.157H151.018C151.117 149.157 151.216 149.157 151.216 148.959V140.942C151.216 140.15 151.018 139.457 150.622 138.863ZM148.84 145.198C148.84 145.891 148.543 146.485 147.949 146.881C147.356 147.276 146.663 147.474 145.673 147.573C144.98 147.573 144.386 147.375 143.99 147.078C143.594 146.782 143.396 146.386 143.396 145.792C143.396 145.198 143.594 144.703 144.188 144.307C144.782 143.911 145.574 143.713 146.465 143.713H148.741C148.791 143.713 148.815 143.713 148.828 143.726C148.84 143.738 148.84 143.763 148.84 143.812V143.812V145.198ZM167.448 138.072C168.24 138.863 168.635 139.853 168.635 141.14V148.959C168.635 149.157 168.536 149.157 168.437 149.157H166.656C166.458 149.157 166.458 149.058 166.458 148.959V141.536C166.458 140.744 166.26 140.15 165.765 139.655C165.27 139.16 164.676 138.962 163.984 138.962C163.192 138.962 162.598 139.16 162.202 139.655C161.707 140.15 161.509 140.744 161.509 141.536V148.959C161.509 149.157 161.41 149.157 161.311 149.157H159.53C159.332 149.157 159.332 149.058 159.332 148.959V137.379C159.332 137.181 159.431 137.181 159.53 137.181H161.311C161.509 137.181 161.509 137.28 161.509 137.379V138.27V138.369H161.608C162.301 137.478 163.291 137.082 164.577 137.082C165.666 136.983 166.755 137.379 167.448 138.072ZM176.553 133.717C176.553 134.113 176.652 134.509 176.949 134.805C177.246 135.102 177.642 135.201 178.038 135.201C178.434 135.201 178.83 135.102 179.127 134.805C179.424 134.509 179.523 134.113 179.523 133.717C179.523 133.321 179.424 132.925 179.127 132.628C178.83 132.331 178.434 132.232 178.038 132.232C177.642 132.232 177.246 132.331 176.949 132.628C176.652 132.925 176.553 133.321 176.553 133.717ZM176.85 137.379V148.959C176.85 149.157 176.949 149.157 177.048 149.157H178.83C178.929 149.157 179.028 149.157 179.028 148.959V137.379C179.028 137.28 179.028 137.181 178.83 137.181H177.048C176.949 137.181 176.85 137.181 176.85 137.379ZM187.441 145.99C187.243 145.297 187.045 144.307 187.045 143.119C187.045 142.031 187.144 141.041 187.441 140.249C187.738 139.259 188.332 138.468 189.222 137.874C190.113 137.28 191.103 136.983 192.291 136.983C193.478 136.983 194.468 137.28 195.359 137.874C196.25 138.468 196.844 139.259 197.141 140.15C197.161 140.212 197.182 140.27 197.202 140.325C197.276 140.534 197.338 140.707 197.338 140.942C197.338 141.041 197.24 141.14 197.141 141.14L195.359 141.437C195.26 141.437 195.161 141.338 195.161 141.239L195.062 140.843C194.963 140.348 194.666 139.853 194.171 139.457C193.676 139.061 193.083 138.863 192.39 138.863C191.697 138.863 191.103 139.061 190.608 139.457C190.113 139.853 189.816 140.348 189.717 140.942C189.618 141.536 189.519 142.229 189.519 143.218C189.519 144.109 189.618 144.901 189.717 145.495C189.915 146.089 190.212 146.584 190.608 146.98C191.103 147.375 191.697 147.573 192.291 147.573C192.984 147.573 193.577 147.375 194.072 146.98C194.567 146.584 194.864 146.188 194.963 145.594V145.495V145.396V145.297C194.963 145.198 195.062 145.099 195.26 145.198L197.042 145.495C197.141 145.495 197.24 145.594 197.24 145.693V145.792C197.24 145.891 197.24 146.089 197.141 146.287C196.844 147.276 196.25 148.068 195.359 148.662C194.468 149.256 193.478 149.553 192.291 149.553C191.103 149.454 190.014 149.157 189.222 148.464C188.332 147.87 187.738 146.98 187.441 145.99ZM214.263 147.771C214.659 148.266 215.253 148.662 215.946 148.959C216.639 149.256 217.53 149.355 218.42 149.355C219.806 149.355 220.895 148.959 221.786 148.365C222.676 147.771 223.072 146.881 223.072 145.792C223.072 145 222.874 144.406 222.478 143.911C221.984 143.416 221.489 143.02 220.895 142.823C220.478 142.614 219.964 142.455 219.387 142.275C219.141 142.199 218.884 142.119 218.618 142.031C217.629 141.734 216.936 141.437 216.54 141.239C216.144 140.942 215.946 140.645 215.946 140.15C215.946 139.655 216.243 139.358 216.639 139.061C217.035 138.764 217.629 138.666 218.321 138.666C219.113 138.666 219.707 138.863 220.202 139.16C220.697 139.457 220.895 139.853 220.895 140.348V140.447C220.895 140.546 220.895 140.645 221.093 140.645H222.775C222.874 140.645 222.973 140.645 222.973 140.447V140.348C222.973 139.655 222.775 139.061 222.379 138.567C222.083 138.072 221.588 137.676 220.796 137.379C220.004 137.082 219.212 136.983 218.321 136.983C217.035 136.983 215.847 137.28 215.055 137.874C214.164 138.567 213.769 139.358 213.769 140.447C213.769 141.239 213.966 141.833 214.362 142.328C214.857 142.823 215.352 143.119 215.946 143.416C216.363 143.625 216.877 143.784 217.454 143.964C217.7 144.04 217.957 144.12 218.222 144.208C219.113 144.406 219.806 144.703 220.202 144.901C220.598 145.099 220.796 145.396 220.796 145.891C220.796 146.386 220.499 146.782 220.103 147.078C219.608 147.375 219.014 147.573 218.321 147.573C217.53 147.573 216.936 147.474 216.441 147.078C215.946 146.683 215.748 146.287 215.748 145.891V145.792C215.748 145.693 215.748 145.594 215.55 145.594H213.867C213.769 145.594 213.67 145.594 213.67 145.792V146.089C213.67 146.683 213.867 147.276 214.263 147.771ZM236.236 139.061H233.663C233.613 139.061 233.588 139.061 233.576 139.074C233.564 139.086 233.564 139.111 233.564 139.16V145.495C233.564 146.188 233.762 146.683 234.059 146.98C234.356 147.276 234.85 147.375 235.444 147.375H236.137C236.335 147.375 236.335 147.474 236.335 147.573V149.058C236.335 149.256 236.236 149.256 236.137 149.256H235.048C233.861 149.256 232.97 149.058 232.376 148.563C231.782 148.167 231.485 147.276 231.485 146.188V139.061C231.485 139.012 231.485 138.987 231.473 138.975C231.46 138.962 231.436 138.962 231.386 138.962H229.902C229.704 138.962 229.704 138.863 229.704 138.764V137.379C229.704 137.181 229.803 137.181 229.902 137.181H231.386C231.485 137.181 231.485 137.181 231.485 137.082V134.311C231.485 134.113 231.584 134.113 231.683 134.113H233.366C233.564 134.113 233.564 134.212 233.564 134.311V137.082C233.564 137.181 233.564 137.181 233.663 137.181H236.236C236.434 137.181 236.434 137.28 236.434 137.379V138.764C236.434 138.962 236.335 139.061 236.236 139.061ZM243.857 146.089C244.154 147.177 244.748 147.969 245.639 148.563C246.431 149.157 247.519 149.454 248.707 149.553C249.796 149.553 250.786 149.256 251.676 148.662C252.468 148.068 253.062 147.276 253.458 146.188C253.755 145.297 253.854 144.307 253.854 143.218C253.854 142.13 253.755 141.14 253.458 140.348C253.161 139.259 252.567 138.468 251.676 137.874C250.885 137.28 249.895 136.983 248.707 136.983C247.519 136.983 246.53 137.28 245.639 137.874C244.847 138.468 244.253 139.259 243.857 140.348C243.56 141.14 243.461 142.13 243.461 143.218C243.461 144.307 243.56 145.198 243.857 146.089ZM251.28 145.396C251.083 145.99 250.786 146.485 250.291 146.881C249.895 147.276 249.301 147.474 248.707 147.375C248.014 147.375 247.42 147.276 246.926 146.881C246.431 146.584 246.134 146.089 245.936 145.396C245.738 144.802 245.639 144.01 245.639 143.119C245.639 142.229 245.738 141.536 245.936 140.942C246.134 140.348 246.431 139.754 246.926 139.457C247.42 139.16 247.915 138.962 248.608 138.962C249.301 138.962 249.994 139.16 250.39 139.457C250.786 139.754 251.181 140.249 251.379 140.942C251.478 141.536 251.577 142.229 251.577 143.119C251.577 144.01 251.478 144.802 251.28 145.396ZM268.304 137.28C268.403 137.28 268.502 137.379 268.403 137.577L268.007 139.358C268.007 139.457 267.908 139.556 267.71 139.457C267.414 139.358 267.117 139.259 266.721 139.259H266.424C265.632 139.259 265.038 139.556 264.543 140.051C264.048 140.546 263.85 141.14 263.85 141.932V148.86C263.85 149.058 263.751 149.058 263.652 149.058H261.871C261.673 149.058 261.673 148.959 261.673 148.86V137.28C261.673 137.082 261.772 137.082 261.871 137.082H263.652C263.85 137.082 263.85 137.181 263.85 137.28V138.567V138.666H263.949C264.642 137.577 265.632 136.983 266.919 136.983C267.414 136.983 267.908 137.082 268.304 137.28ZM284.734 144.109C284.833 144.109 284.932 144.109 284.932 143.911C284.932 143.161 284.862 142.551 284.781 141.845C284.766 141.713 284.75 141.577 284.734 141.437C284.536 139.853 284.042 138.666 283.25 137.874C282.458 137.082 281.27 136.686 279.687 136.686C278.499 136.686 277.509 137.082 276.618 137.676C275.827 138.27 275.233 139.16 274.936 140.249C274.738 140.843 274.639 141.734 274.639 142.921C274.639 144.208 274.837 145.396 275.233 146.287C275.629 147.276 276.222 147.969 277.014 148.464C277.806 148.959 278.796 149.256 279.984 149.256C280.973 149.256 281.963 149.058 282.755 148.662C283.547 148.266 284.24 147.672 284.635 146.98C284.635 146.881 284.635 146.782 284.536 146.683L283.151 145.792C283.052 145.693 282.953 145.693 282.854 145.891C282.26 146.881 281.369 147.375 280.181 147.375C279.39 147.375 278.697 147.276 278.202 146.881C277.608 146.485 277.311 145.99 277.113 145.396C277.014 145.198 277.014 144.703 277.014 144.208C277.014 144.159 277.014 144.134 277.027 144.122C277.039 144.109 277.064 144.109 277.113 144.109H284.734ZM277.212 140.843C277.311 140.249 277.707 139.754 278.103 139.457C278.499 139.061 279.093 138.962 279.885 138.863C280.577 138.863 281.171 139.061 281.666 139.457C282.062 139.853 282.359 140.348 282.557 140.942C282.557 141.072 282.576 141.22 282.597 141.387C282.624 141.603 282.656 141.851 282.656 142.13C282.656 142.229 282.656 142.229 282.557 142.229H277.113C277.064 142.229 277.039 142.229 277.027 142.216C277.014 142.204 277.014 142.179 277.014 142.13C277.014 141.635 277.113 141.239 277.212 140.843Z" fill="white"/>
</g>
<defs>
<clipPath id="clip0">
<path d="M0 0H290V154.403H0V0Z" fill="white"/>
</clipPath>
</defs>
</svg>
