<svg width="24" height="24" viewBox="0 0 24 24" fill="none" xmlns="http://www.w3.org/2000/svg">
<path d="M18.3 5H5.7V5C4.20884 5 3 6.17526 3 7.625V7.625V16.375V16.375C3 17.8247 4.20884 19 5.7 19H18.3V19C19.7912 19 21 17.8247 21 16.375V7.625C21 6.17526 19.7912 5 18.3 5V5ZM17.697 6.75L12 10.9063L6.303 6.75H17.697ZM18.3 17.25H5.7V17.25C5.20294 17.25 4.8 16.8582 4.8 16.375V16.375V7.84375L11.46 12.7V12.7C11.6158 12.8136 11.8053 12.875 12 12.875V12.875C12.1947 12.875 12.3842 12.8136 12.54 12.7L19.2 7.84375V16.375C19.2 16.8582 18.7971 17.25 18.3 17.25V17.25Z" fill="white"/>
</svg>
