<?xml version="1.0" encoding="utf-8"?>
<!-- Generator: Adobe Illustrator 22.0.1, SVG Export Plug-In . SVG Version: 6.00 Build 0)  -->
<svg version="1.1" xmlns="http://www.w3.org/2000/svg" xmlns:xlink="http://www.w3.org/1999/xlink" x="0px" y="0px"
	 viewBox="0 0 100 100" style="enable-background:new 0 0 100 100;" xml:space="preserve">
<style type="text/css">
	.st0{fill:#EDEDED;}
	.st1{fill:none;stroke:#1D1D1B;stroke-linecap:round;stroke-linejoin:round;stroke-miterlimit:10;}
	.st2{fill:#00ADB5;stroke:#00ADB5;stroke-linecap:round;stroke-linejoin:round;stroke-miterlimit:10;}
	.st3{fill:#698FB7;stroke:#698FB7;stroke-linecap:round;stroke-linejoin:round;stroke-miterlimit:10;}
</style>
<g id="Layer_1">
</g>
<g id="Layer_2">
	<g>
		<g>
			<g>
				<rect x="27.2" y="49.6" class="st1" width="18.5" height="26.3"/>
				<line class="st1" x1="31.4" y1="55.9" x2="41.6" y2="55.9"/>
				<g>
					<line class="st1" x1="35.6" y1="73.2" x2="35.6" y2="73.2"/>
					<line class="st1" x1="30.8" y1="73.2" x2="33" y2="73.2"/>
					<line class="st1" x1="38.2" y1="73.2" x2="42.2" y2="73.2"/>
				</g>
			</g>
			<path class="st1" d="M43.4,33.8c-1.5-0.9-2.3-2.6-2.3-4.4V13.3c0.4-0.2,0.7-0.6,0.7-1V9.5c0-0.6-0.5-1.1-1.1-1.1h-8.3
				c-0.6,0-1.1,0.5-1.1,1.1v2.8c0,0.5,0.3,0.9,0.7,1v16.1c0,1.8-0.8,3.5-2.3,4.4c-3.7,2.3-6.1,6.4-6.1,11v46.4
				c0,1.8,1.5,3.3,3.3,3.3h19.5c1.8,0,3.3-1.5,3.3-3.3V44.8C49.5,40.2,47.1,36.1,43.4,33.8z"/>
			<line class="st1" x1="32" y1="22.7" x2="41" y2="22.7"/>
		</g>
		<g>
			<line class="st1" x1="62.1" y1="93.7" x2="73.1" y2="93.7"/>
			<line class="st1" x1="67.6" y1="76.9" x2="67.6" y2="93.7"/>
			<path class="st1" d="M67.3,76.7c-5.1,0-9.3-3.9-9.3-9.3s1.2-13.5,1.2-13.5h16.1c0,0,1.2,8.5,1.2,13.5
				C76.5,72.5,72.4,76.7,67.3,76.7z"/>
			<line class="st1" x1="58.4" y1="63.3" x2="76.2" y2="63.3"/>
		</g>
	</g>
</g>
</svg>
