<?xml version="1.0" encoding="utf-8"?>
<!-- Generator: Adobe Illustrator 22.0.1, SVG Export Plug-In . SVG Version: 6.00 Build 0)  -->
<svg version="1.1" xmlns="http://www.w3.org/2000/svg" xmlns:xlink="http://www.w3.org/1999/xlink" x="0px" y="0px"
	 viewBox="0 0 100 100" style="enable-background:new 0 0 100 100;" xml:space="preserve">
<style type="text/css">
	.st0{fill:#EDEDED;}
	.st1{fill:none;stroke:#1D1D1B;stroke-linecap:round;stroke-linejoin:round;stroke-miterlimit:10;}
	.st2{fill:#00ADB5;stroke:#00ADB5;stroke-linecap:round;stroke-linejoin:round;stroke-miterlimit:10;}
	.st3{fill:#698FB7;stroke:#698FB7;stroke-linecap:round;stroke-linejoin:round;stroke-miterlimit:10;}
</style>
<g id="Layer_1">
</g>
<g id="Layer_2">
	<g>
		<rect x="9.2" y="34.1" class="st1" width="81.6" height="60.4"/>
		<line class="st1" x1="90.8" y1="39.4" x2="9.2" y2="39.4"/>
		<rect x="18.8" y="49.3" class="st1" width="62.3" height="19.4"/>
		<rect x="41.8" y="73.5" class="st1" width="16.5" height="15.5"/>
		<g>
			<line class="st1" x1="64.7" y1="74" x2="81.2" y2="74"/>
			<line class="st1" x1="64.7" y1="88.5" x2="81.2" y2="88.5"/>
			<line class="st1" x1="64.7" y1="83.7" x2="81.2" y2="83.7"/>
			<line class="st1" x1="64.7" y1="78.8" x2="81.2" y2="78.8"/>
		</g>
		<line class="st1" x1="18.9" y1="44.3" x2="27.1" y2="44.3"/>
		<line class="st1" x1="36.9" y1="44.3" x2="45.1" y2="44.3"/>
		<line class="st1" x1="55" y1="44.3" x2="63.1" y2="44.3"/>
		<line class="st1" x1="73" y1="44.3" x2="81.2" y2="44.3"/>
		<g>
			<line class="st1" x1="12.4" y1="36.6" x2="12.4" y2="36.6"/>
			<line class="st1" x1="15.5" y1="36.6" x2="15.5" y2="36.6"/>
			<line class="st1" x1="18.7" y1="36.6" x2="18.7" y2="36.6"/>
		</g>
	</g>
</g>
</svg>
