<?xml version="1.0" encoding="utf-8"?>
<!-- Generator: Adobe Illustrator 22.0.1, SVG Export Plug-In . SVG Version: 6.00 Build 0)  -->
<svg version="1.1" xmlns="http://www.w3.org/2000/svg" xmlns:xlink="http://www.w3.org/1999/xlink" x="0px" y="0px"
	 viewBox="0 0 100 100" style="enable-background:new 0 0 100 100;" xml:space="preserve">
<style type="text/css">
	.st0{fill:#EDEDED;}
	.st1{fill:none;stroke:#1D1D1B;stroke-linecap:round;stroke-linejoin:round;stroke-miterlimit:10;}
	.st2{fill:#00ADB5;stroke:#00ADB5;stroke-linecap:round;stroke-linejoin:round;stroke-miterlimit:10;}
	.st3{fill:#698FB7;stroke:#698FB7;stroke-linecap:round;stroke-linejoin:round;stroke-miterlimit:10;}
</style>
<g id="Layer_1">
	<rect x="-1634.1" y="89.2" class="st0" width="99" height="99"/>
	<rect x="-1488" y="89.2" class="st0" width="99" height="99"/>
	<rect x="-1342" y="89.2" class="st0" width="99" height="99"/>
	<rect x="-1196" y="89.2" class="st0" width="99" height="99"/>
	<rect x="-1049.9" y="89.2" class="st0" width="99" height="99"/>
	<rect x="-903.9" y="89.2" class="st0" width="99" height="99"/>
	<rect x="-757.9" y="89.2" class="st0" width="99" height="99"/>
	<rect x="-611.8" y="89.2" class="st0" width="99" height="99"/>
</g>
<g id="Layer_2">
	<g>
		<rect x="-1472.3" y="144" class="st1" width="58.9" height="30.4"/>
		<polygon class="st1" points="-1413.6,119.4 -1472.5,119.4 -1470,112.3 -1411.1,112.3 		"/>
		<polyline class="st1" points="-1470,112.3 -1411.1,112.3 -1398.2,132.6 -1457.3,132.6 -1465.5,119.5 		"/>
		<polygon class="st1" points="-1398.2,163 -1413.4,174.4 -1413.4,144 -1398.2,132.6 		"/>
		<polygon class="st1" points="-1413.4,144 -1472.3,144 -1457.3,132.6 -1398.2,132.6 		"/>
		<rect x="-1464" y="153.2" class="st2" width="42.2" height="5.9"/>
		<line class="st1" x1="-1459" y1="165.3" x2="-1426.8" y2="165.3"/>
		<line class="st1" x1="-1457.3" y1="132.6" x2="-1457.3" y2="143.7"/>
	</g>
	<g>
		<polygon class="st1" points="-1295.4,164.7 -1325.2,171.1 -1325.2,119.1 -1295.4,113.6 		"/>
		<rect x="-1295.4" y="113.6" class="st1" width="33.5" height="51"/>
		<polyline class="st1" points="-1325.3,168.4 -1332.5,168.4 -1332.5,109.9 -1258.2,109.9 -1258.2,168.4 -1312.5,168.4 		"/>
		<g>
			<line class="st1" x1="-1298.1" y1="110.3" x2="-1298.1" y2="113.6"/>
			<line class="st1" x1="-1292.6" y1="110.3" x2="-1292.6" y2="113.6"/>
		</g>
		<g>
			<line class="st1" x1="-1298.1" y1="165.5" x2="-1298.1" y2="168.3"/>
			<line class="st1" x1="-1292.6" y1="165" x2="-1292.6" y2="168.3"/>
		</g>
		<line class="st1" x1="-1289.5" y1="121.1" x2="-1267.8" y2="121.1"/>
		<rect x="-1289.5" y="125.8" class="st2" width="13" height="21"/>
		<line class="st1" x1="-1278.1" y1="152.4" x2="-1267.8" y2="152.4"/>
		<line class="st1" x1="-1278.1" y1="155.1" x2="-1267.8" y2="155.1"/>
		<line class="st1" x1="-1278.1" y1="157.8" x2="-1267.8" y2="157.8"/>
	</g>
	<g>
		<polygon class="st1" points="-1295.4,51.7 -1325.2,58.1 -1325.2,6.1 -1295.4,0.6 		"/>
		<rect x="-1295.4" y="0.6" class="st1" width="33.5" height="51"/>
		<polyline class="st1" points="-1325.5,51.7 -1328.8,51.7 -1328.8,0.6 -1295.4,0.6 		"/>
		<polyline class="st1" points="-1325.3,55.4 -1332.5,55.4 -1332.5,-3.1 -1258.2,-3.1 -1258.2,55.4 -1312.5,55.4 		"/>
		<g>
			<line class="st1" x1="-1298.1" y1="-2.7" x2="-1298.1" y2="0.6"/>
			<line class="st1" x1="-1292.6" y1="-2.7" x2="-1292.6" y2="0.6"/>
		</g>
		<g>
			<line class="st1" x1="-1298.1" y1="52.5" x2="-1298.1" y2="55.3"/>
			<line class="st1" x1="-1292.6" y1="52" x2="-1292.6" y2="55.3"/>
		</g>
		<line class="st1" x1="-1289.5" y1="8.1" x2="-1267.8" y2="8.1"/>
		<rect x="-1289.5" y="12.8" class="st2" width="13" height="21"/>
		<line class="st1" x1="-1278.1" y1="39.4" x2="-1267.8" y2="39.4"/>
		<line class="st1" x1="-1278.1" y1="42.1" x2="-1267.8" y2="42.1"/>
		<line class="st1" x1="-1278.1" y1="44.8" x2="-1267.8" y2="44.8"/>
	</g>
	<g>
		<g>
			<line class="st1" x1="-1156.9" y1="40.2" x2="-1126.6" y2="40.2"/>
			<line class="st1" x1="-1156.9" y1="44.2" x2="-1139" y2="44.2"/>
		</g>
		<rect x="-1175.9" y="35.8" class="st2" width="12.8" height="12.8"/>
	</g>
	<g>
		<rect x="-1181.9" y="122.8" class="st1" width="70.8" height="43.4"/>
		<g>
			<line class="st1" x1="-1161.6" y1="153.1" x2="-1131.4" y2="153.1"/>
			<line class="st1" x1="-1155.5" y1="157.1" x2="-1137.6" y2="157.1"/>
			<rect x="-1152.9" y="131.8" class="st2" width="12.8" height="12.8"/>
		</g>
		<polyline class="st1" points="-1177.9,122.5 -1177.9,118.7 -1107.1,118.7 -1107.1,162.2 -1111.1,162.2 		"/>
		<line class="st1" x1="-1141.8" y1="143" x2="-1141.8" y2="143"/>
		<rect x="-1155.6" y="129.1" class="st1" width="5.4" height="5.4"/>
	</g>
	<g>
		<circle class="st1" cx="-1000.2" cy="134.6" r="10.4"/>
		<circle class="st2" cx="-993.1" cy="142.3" r="4.4"/>
		<path class="st1" d="M-1000.2,149c-7.9,0-14.4-6.4-14.4-14.4s6.4-14.4,14.4-14.4c7.9,0,14.4,6.4,14.4,14.4"/>
		<polyline class="st1" points="-984.4,133.1 -985.9,134.6 -987.4,133.1 		"/>
	</g>
	<rect x="-1036.5" y="112.8" class="st1" width="74" height="51.7"/>
	<rect x="-893" y="109.4" class="st1" width="81.6" height="55.1"/>
	<rect x="-893" y="104.1" class="st1" width="81.6" height="5.3"/>
	<line class="st1" x1="-1036.2" y1="156.9" x2="-962.8" y2="156.9"/>
	<polygon class="st1" points="-1032.9,160.7 -1032.9,159 -1031.4,159.9 -1030,160.7 -1031.4,161.5 -1032.9,162.4 	"/>
	<line class="st1" x1="-1025.3" y1="160.7" x2="-968.8" y2="160.7"/>
	<rect x="-883.4" y="119.2" class="st1" width="62.3" height="19.4"/>
	<rect x="-883.4" y="143.5" class="st2" width="16.5" height="15.5"/>
	<rect x="-860.5" y="143.5" class="st1" width="16.5" height="15.5"/>
	<g>
		<line class="st1" x1="-837.6" y1="144" x2="-821.1" y2="144"/>
		<line class="st1" x1="-837.6" y1="158.5" x2="-821.1" y2="158.5"/>
		<line class="st1" x1="-837.6" y1="153.7" x2="-821.1" y2="153.7"/>
		<line class="st1" x1="-837.6" y1="148.8" x2="-821.1" y2="148.8"/>
	</g>
	<line class="st1" x1="-883.3" y1="114.3" x2="-875.2" y2="114.3"/>
	<line class="st1" x1="-865.3" y1="114.3" x2="-857.1" y2="114.3"/>
	<line class="st1" x1="-847.3" y1="114.3" x2="-839.1" y2="114.3"/>
	<line class="st1" x1="-829.2" y1="114.3" x2="-821.1" y2="114.3"/>
	<g>
		<line class="st1" x1="-889.8" y1="106.6" x2="-889.8" y2="106.6"/>
		<line class="st1" x1="-886.7" y1="106.6" x2="-886.7" y2="106.6"/>
		<line class="st1" x1="-883.5" y1="106.6" x2="-883.5" y2="106.6"/>
	</g>
	<g>
		<rect x="13" y="206.6" class="st1" width="58.9" height="30.4"/>
		<line class="st1" x1="28.1" y1="195.2" x2="19.9" y2="182.2"/>
		<polyline class="st1" points="74.3,174.9 71.8,182 12.9,182 15.4,174.9 74.3,174.9 87.1,195.2 		"/>
		<polyline class="st1" points="87.1,195.2 87.1,225.6 71.9,237 		"/>
		<polygon class="st1" points="71.9,206.6 13,206.6 28.1,195.2 87.1,195.2 		"/>
		<rect x="21.4" y="215.9" class="st3" width="42.2" height="5.9"/>
		<line class="st1" x1="26.4" y1="227.9" x2="58.6" y2="227.9"/>
		<line class="st1" x1="28.1" y1="195.2" x2="28.1" y2="206.3"/>
	</g>
	<g>
		<g>
			<rect x="-1594.7" y="135.8" class="st1" width="18.5" height="26.3"/>
			<line class="st1" x1="-1590.5" y1="142.1" x2="-1580.4" y2="142.1"/>
			<rect x="-1590.5" y="144.9" class="st2" width="10.2" height="8.6"/>
			<g>
				<line class="st1" x1="-1586.3" y1="159.4" x2="-1586.3" y2="159.4"/>
				<line class="st1" x1="-1591.2" y1="159.4" x2="-1588.9" y2="159.4"/>
				<line class="st1" x1="-1583.8" y1="159.4" x2="-1579.7" y2="159.4"/>
			</g>
		</g>
		<path class="st1" d="M-1578.5,120c-1.5-0.9-2.3-2.6-2.3-4.4V99.5c0.4-0.2,0.7-0.6,0.7-1v-2.8c0-0.6-0.5-1.1-1.1-1.1h-8.3
			c-0.6,0-1.1,0.5-1.1,1.1v2.8c0,0.5,0.3,0.9,0.7,1v16.1c0,1.8-0.8,3.5-2.3,4.4c-3.7,2.3-6.1,6.4-6.1,11v48.4c0,1.8,1.5,3.3,3.3,3.3
			h19.5c1.8,0,3.3-1.5,3.3-3.3V131C-1572.5,126.4-1574.9,122.3-1578.5,120z"/>
		<line class="st1" x1="-1590" y1="108.9" x2="-1581" y2="108.9"/>
	</g>
	<g>
		<polygon class="st1" points="212,230.6 182.2,237 182.2,185 212,179.5 		"/>
		<rect x="212" y="179.5" class="st1" width="33.5" height="51"/>
		<polyline class="st1" points="182.1,234.3 174.8,234.3 174.8,175.8 249.2,175.8 249.2,234.3 194.8,234.3 		"/>
		<g>
			<line class="st1" x1="209.3" y1="176.2" x2="209.3" y2="179.4"/>
			<line class="st1" x1="214.7" y1="176.2" x2="214.7" y2="179.4"/>
		</g>
		<g>
			<line class="st1" x1="209.3" y1="231.4" x2="209.3" y2="234.2"/>
			<line class="st1" x1="214.7" y1="230.9" x2="214.7" y2="234.2"/>
		</g>
		<line class="st1" x1="217.8" y1="187" x2="239.6" y2="187"/>
		<rect x="217.8" y="191.7" class="st3" width="13" height="21"/>
		<line class="st1" x1="229.3" y1="218.3" x2="239.6" y2="218.3"/>
		<line class="st1" x1="229.3" y1="221" x2="239.6" y2="221"/>
		<line class="st1" x1="229.3" y1="223.7" x2="239.6" y2="223.7"/>
	</g>
	<g>
		<rect x="348.6" y="193.6" class="st1" width="70.8" height="43.4"/>
		<g>
			<line class="st1" x1="368.9" y1="223.9" x2="399.1" y2="223.9"/>
			<line class="st1" x1="375" y1="227.9" x2="393" y2="227.9"/>
			<rect x="377.6" y="202.6" class="st3" width="12.8" height="12.8"/>
		</g>
		<polyline class="st1" points="352.6,193.3 352.6,189.6 423.4,189.6 423.4,233 419.4,233 		"/>
		<line class="st1" x1="388.7" y1="213.8" x2="388.7" y2="213.8"/>
		<rect x="374.9" y="199.9" class="st1" width="5.4" height="5.4"/>
	</g>
	<g>
		<g>
			<circle class="st1" cx="565.3" cy="207.1" r="10.4"/>
			<circle class="st3" cx="572.4" cy="214.8" r="4.4"/>
			<path class="st1" d="M565.3,221.5c-7.9,0-14.4-6.4-14.4-14.4s6.4-14.4,14.4-14.4c7.9,0,14.4,6.4,14.4,14.4"/>
			<polyline class="st1" points="581.1,205.6 579.6,207.1 578.1,205.6 			"/>
		</g>
		<rect x="529" y="185.3" class="st1" width="74" height="51.7"/>
		<line class="st1" x1="529.3" y1="229.4" x2="602.7" y2="229.4"/>
		<polygon class="st1" points="532.6,233.2 532.6,231.5 534.1,232.4 535.5,233.2 534.1,234 532.6,234.9 		"/>
		<line class="st1" x1="540.2" y1="233.2" x2="596.7" y2="233.2"/>
	</g>
	<g>
		<rect x="706.2" y="181.9" class="st1" width="81.6" height="55.1"/>
		<rect x="706.2" y="176.6" class="st1" width="81.6" height="5.3"/>
		<rect x="715.8" y="191.8" class="st1" width="62.3" height="19.4"/>
		<rect x="715.8" y="216" class="st3" width="16.5" height="15.5"/>
		<rect x="738.8" y="216" class="st1" width="16.5" height="15.5"/>
		<g>
			<line class="st1" x1="761.7" y1="216.5" x2="778.2" y2="216.5"/>
			<line class="st1" x1="761.7" y1="231" x2="778.2" y2="231"/>
			<line class="st1" x1="761.7" y1="226.2" x2="778.2" y2="226.2"/>
			<line class="st1" x1="761.7" y1="221.3" x2="778.2" y2="221.3"/>
		</g>
		<line class="st1" x1="715.9" y1="186.8" x2="724.1" y2="186.8"/>
		<line class="st1" x1="733.9" y1="186.8" x2="742.1" y2="186.8"/>
		<line class="st1" x1="752" y1="186.8" x2="760.1" y2="186.8"/>
		<line class="st1" x1="770" y1="186.8" x2="778.2" y2="186.8"/>
		<g>
			<line class="st1" x1="709.4" y1="179.1" x2="709.4" y2="179.1"/>
			<line class="st1" x1="712.5" y1="179.1" x2="712.5" y2="179.1"/>
			<line class="st1" x1="715.7" y1="179.1" x2="715.7" y2="179.1"/>
		</g>
	</g>
	<g>
		<g>
			<g>
				<rect x="-147.8" y="192.1" class="st1" width="18.5" height="26.3"/>
				<line class="st1" x1="-143.6" y1="198.4" x2="-133.4" y2="198.4"/>
				<rect x="-143.6" y="201.2" class="st3" width="10.2" height="8.6"/>
				<g>
					<line class="st1" x1="-139.4" y1="215.7" x2="-139.4" y2="215.7"/>
					<line class="st1" x1="-144.2" y1="215.7" x2="-142" y2="215.7"/>
					<line class="st1" x1="-136.8" y1="215.7" x2="-132.8" y2="215.7"/>
				</g>
			</g>
			<path class="st1" d="M-131.6,176.3c-1.5-0.9-2.3-2.6-2.3-4.4v-16.1c0.4-0.2,0.7-0.6,0.7-1V152c0-0.6-0.5-1.1-1.1-1.1h-8.3
				c-0.6,0-1.1,0.5-1.1,1.1v2.8c0,0.5,0.3,0.9,0.7,1v16.1c0,1.8-0.8,3.5-2.3,4.4c-3.7,2.3-6.1,6.4-6.1,11v46.4
				c0,1.8,1.5,3.3,3.3,3.3h19.5c1.8,0,3.3-1.5,3.3-3.3v-46.4C-125.5,182.7-127.9,178.6-131.6,176.3z"/>
			<line class="st1" x1="-143" y1="165.2" x2="-134" y2="165.2"/>
		</g>
		<g>
			<line class="st1" x1="-112.9" y1="236.2" x2="-101.9" y2="236.2"/>
			<line class="st1" x1="-107.4" y1="219.4" x2="-107.4" y2="236.2"/>
			<path class="st1" d="M-107.7,219.2c-5.1,0-9.3-3.9-9.3-9.3c0-5.3,1.2-13.5,1.2-13.5h16.1c0,0,1.2,8.5,1.2,13.5
				C-98.5,215-102.6,219.2-107.7,219.2z"/>
			<line class="st1" x1="-116.6" y1="205.8" x2="-98.8" y2="205.8"/>
		</g>
	</g>
	<g>
		<polyline class="st1" points="212,88.1 182.2,94.5 182.2,42.5 212,37 		"/>
		<rect x="212" y="37" class="st1" width="33.5" height="51"/>
		<polyline class="st1" points="182.1,91.8 174.8,91.8 174.8,33.3 249.2,33.3 249.2,91.8 194.8,91.8 		"/>
		<g>
			<line class="st1" x1="209.3" y1="33.7" x2="209.3" y2="37"/>
			<line class="st1" x1="214.7" y1="33.7" x2="214.7" y2="37"/>
		</g>
		<g>
			<line class="st1" x1="209.3" y1="88.9" x2="209.3" y2="91.7"/>
			<line class="st1" x1="214.7" y1="88.4" x2="214.7" y2="91.7"/>
		</g>
		<line class="st1" x1="217.8" y1="44.5" x2="239.6" y2="44.5"/>
		<line class="st1" x1="229.3" y1="75.8" x2="239.6" y2="75.8"/>
		<line class="st1" x1="229.3" y1="78.5" x2="239.6" y2="78.5"/>
		<line class="st1" x1="229.3" y1="81.3" x2="239.6" y2="81.3"/>
	</g>
	<g>
		<rect x="348.6" y="51.1" class="st1" width="70.8" height="43.4"/>
		<g>
			<line class="st1" x1="368.9" y1="81.4" x2="399.1" y2="81.4"/>
			<line class="st1" x1="375" y1="85.4" x2="393" y2="85.4"/>
		</g>
		<polyline class="st1" points="352.6,50.8 352.6,47.1 423.4,47.1 423.4,90.5 419.4,90.5 		"/>
		<line class="st1" x1="388.7" y1="71.3" x2="388.7" y2="71.3"/>
		<rect x="374.9" y="57.4" class="st1" width="5.4" height="5.4"/>
	</g>
	<g>
		<g>
			<circle class="st1" cx="565.3" cy="64.6" r="10.4"/>
			<path class="st1" d="M565.3,79c-7.9,0-14.4-6.4-14.4-14.4s6.4-14.4,14.4-14.4c7.9,0,14.4,6.4,14.4,14.4"/>
			<polyline class="st1" points="581.1,63.2 579.6,64.6 578.1,63.2 			"/>
		</g>
		<rect x="529" y="42.8" class="st1" width="74" height="51.7"/>
		<line class="st1" x1="529.3" y1="86.9" x2="602.7" y2="86.9"/>
		<polygon class="st1" points="532.6,90.7 532.6,89 534.1,89.9 535.5,90.7 534.1,91.6 532.6,92.4 		"/>
		<line class="st1" x1="540.2" y1="90.7" x2="596.7" y2="90.7"/>
	</g>
	<g>
		<rect x="706.2" y="34.1" class="st1" width="81.6" height="60.4"/>
		<line class="st1" x1="787.8" y1="39.4" x2="706.2" y2="39.4"/>
		<rect x="715.8" y="49.3" class="st1" width="62.3" height="19.4"/>
		<rect x="738.8" y="73.5" class="st1" width="16.5" height="15.5"/>
		<g>
			<line class="st1" x1="761.7" y1="74" x2="778.2" y2="74"/>
			<line class="st1" x1="761.7" y1="88.5" x2="778.2" y2="88.5"/>
			<line class="st1" x1="761.7" y1="83.7" x2="778.2" y2="83.7"/>
			<line class="st1" x1="761.7" y1="78.8" x2="778.2" y2="78.8"/>
		</g>
		<line class="st1" x1="715.9" y1="44.3" x2="724.1" y2="44.3"/>
		<line class="st1" x1="733.9" y1="44.3" x2="742.1" y2="44.3"/>
		<line class="st1" x1="752" y1="44.3" x2="760.1" y2="44.3"/>
		<line class="st1" x1="770" y1="44.3" x2="778.2" y2="44.3"/>
		<g>
			<line class="st1" x1="709.4" y1="36.6" x2="709.4" y2="36.6"/>
			<line class="st1" x1="712.5" y1="36.6" x2="712.5" y2="36.6"/>
			<line class="st1" x1="715.7" y1="36.6" x2="715.7" y2="36.6"/>
		</g>
	</g>
	<g>
		<g>
			<g>
				<rect x="-147.8" y="49.6" class="st1" width="18.5" height="26.3"/>
				<line class="st1" x1="-143.6" y1="55.9" x2="-133.4" y2="55.9"/>
				<g>
					<line class="st1" x1="-139.4" y1="73.2" x2="-139.4" y2="73.2"/>
					<line class="st1" x1="-144.2" y1="73.2" x2="-142" y2="73.2"/>
					<line class="st1" x1="-136.8" y1="73.2" x2="-132.8" y2="73.2"/>
				</g>
			</g>
			<path class="st1" d="M-131.6,33.8c-1.5-0.9-2.3-2.6-2.3-4.4V13.3c0.4-0.2,0.7-0.6,0.7-1V9.5c0-0.6-0.5-1.1-1.1-1.1h-8.3
				c-0.6,0-1.1,0.5-1.1,1.1v2.8c0,0.5,0.3,0.9,0.7,1v16.1c0,1.8-0.8,3.5-2.3,4.4c-3.7,2.3-6.1,6.4-6.1,11v46.4
				c0,1.8,1.5,3.3,3.3,3.3h19.5c1.8,0,3.3-1.5,3.3-3.3V44.8C-125.5,40.2-127.9,36.1-131.6,33.8z"/>
			<line class="st1" x1="-143" y1="22.7" x2="-134" y2="22.7"/>
		</g>
		<g>
			<line class="st1" x1="-112.9" y1="93.7" x2="-101.9" y2="93.7"/>
			<line class="st1" x1="-107.4" y1="76.9" x2="-107.4" y2="93.7"/>
			<path class="st1" d="M-107.7,76.7c-5.1,0-9.3-3.9-9.3-9.3s1.2-13.5,1.2-13.5h16.1c0,0,1.2,8.5,1.2,13.5
				C-98.5,72.5-102.6,76.7-107.7,76.7z"/>
			<line class="st1" x1="-116.6" y1="63.3" x2="-98.8" y2="63.3"/>
		</g>
	</g>
	<g>
		<rect x="13" y="64.1" class="st1" width="58.9" height="30.4"/>
		<line class="st1" x1="28.1" y1="52.7" x2="19.9" y2="39.7"/>
		<polyline class="st1" points="74.3,32.4 71.8,39.5 12.9,39.5 15.4,32.4 74.3,32.4 87.1,52.7 		"/>
		<polyline class="st1" points="87.1,52.7 87.1,83.1 71.9,94.5 		"/>
		<polyline class="st1" points="13,64.1 28.1,52.7 87.1,52.7 71.9,64.1 		"/>
		<line class="st1" x1="26.4" y1="85.4" x2="58.6" y2="85.4"/>
		<line class="st1" x1="28.1" y1="52.7" x2="28.1" y2="63.8"/>
	</g>
</g>
</svg>
