<?xml version="1.0" encoding="utf-8"?>
<!-- Generator: Adobe Illustrator 22.0.1, SVG Export Plug-In . SVG Version: 6.00 Build 0)  -->
<svg version="1.1" xmlns="http://www.w3.org/2000/svg" xmlns:xlink="http://www.w3.org/1999/xlink" x="0px" y="0px"
	 viewBox="0 0 100 100" style="enable-background:new 0 0 100 100;" xml:space="preserve">
<style type="text/css">
	.st0{fill:#EDEDED;}
	.st1{fill:none;stroke:#1D1D1B;stroke-linecap:round;stroke-linejoin:round;stroke-miterlimit:10;}
	.st2{fill:#00ADB5;stroke:#00ADB5;stroke-linecap:round;stroke-linejoin:round;stroke-miterlimit:10;}
</style>
<g id="Layer_1">
</g>
<g id="Layer_2">
	<g>
		<rect x="9.2" y="25.1" class="st1" width="81.6" height="55.1"/>
		<rect x="9.2" y="19.8" class="st1" width="81.6" height="5.3"/>
		<rect x="18.8" y="35" class="st1" width="62.3" height="19.4"/>
		<rect x="18.8" y="59.2" class="st2" width="16.5" height="15.5"/>
		<rect x="41.8" y="59.2" class="st1" width="16.5" height="15.5"/>
		<g>
			<line class="st1" x1="64.7" y1="59.7" x2="81.2" y2="59.7"/>
			<line class="st1" x1="64.7" y1="74.2" x2="81.2" y2="74.2"/>
			<line class="st1" x1="64.7" y1="69.4" x2="81.2" y2="69.4"/>
			<line class="st1" x1="64.7" y1="64.5" x2="81.2" y2="64.5"/>
		</g>
		<line class="st1" x1="18.9" y1="30" x2="27.1" y2="30"/>
		<line class="st1" x1="36.9" y1="30" x2="45.1" y2="30"/>
		<line class="st1" x1="55" y1="30" x2="63.1" y2="30"/>
		<line class="st1" x1="73" y1="30" x2="81.2" y2="30"/>
		<g>
			<line class="st1" x1="12.4" y1="22.3" x2="12.4" y2="22.3"/>
			<line class="st1" x1="15.5" y1="22.3" x2="15.5" y2="22.3"/>
			<line class="st1" x1="18.7" y1="22.3" x2="18.7" y2="22.3"/>
		</g>
	</g>
</g>
</svg>
