<svg width="340" height="225" viewBox="0 0 340 225" fill="none" xmlns="http://www.w3.org/2000/svg">
<g filter="url(#filter0_d)">
<path fill-rule="evenodd" clip-rule="evenodd" d="M170 58C142.4 58 120 80.4 120 108C120 135.6 142.4 158 170 158C197.6 158 220 135.6 220 108C220 80.4 197.6 58 170 58ZM170 148C147.95 148 130 130.05 130 108C130 85.95 147.95 68 170 68C192.05 68 210 85.95 210 108C210 130.05 192.05 148 170 148ZM196.487 89.4625C194.536 87.497 191.359 87.4914 189.4 89.45L160 118.85L150.578 109.465C148.629 107.523 145.474 107.526 143.528 109.472V109.472C141.58 111.42 141.58 114.58 143.528 116.528L156.464 129.464C158.417 131.417 161.583 131.417 163.536 129.464L196.475 96.525C198.424 94.5762 198.429 91.4182 196.487 89.4625V89.4625Z" fill="white"/>
</g>
<defs>
<filter id="filter0_d" x="115" y="57" width="110" height="110" filterUnits="userSpaceOnUse" color-interpolation-filters="sRGB">
<feFlood flood-opacity="0" result="BackgroundImageFix"/>
<feColorMatrix in="SourceAlpha" type="matrix" values="0 0 0 0 0 0 0 0 0 0 0 0 0 0 0 0 0 0 127 0"/>
<feOffset dy="4"/>
<feGaussianBlur stdDeviation="2.5"/>
<feColorMatrix type="matrix" values="0 0 0 0 0 0 0 0 0 0 0 0 0 0 0 0 0 0 0.2 0"/>
<feBlend mode="normal" in2="BackgroundImageFix" result="effect1_dropShadow"/>
<feBlend mode="normal" in="SourceGraphic" in2="effect1_dropShadow" result="shape"/>
</filter>
</defs>
</svg>
