<svg width="340" height="225" viewBox="0 0 340 225" fill="none" xmlns="http://www.w3.org/2000/svg">
<g filter="url(#filter0_d)">
<path fill-rule="evenodd" clip-rule="evenodd" d="M170 84C172.75 84 175 86.25 175 89V109C175 111.75 172.75 114 170 114C167.25 114 165 111.75 165 109V89C165 86.25 167.25 84 170 84ZM169.95 59C142.35 59 120 81.4 120 109C120 136.6 142.35 159 169.95 159C197.6 159 220 136.6 220 109C220 81.4 197.6 59 169.95 59ZM170 149C147.9 149 130 131.1 130 109C130 86.9 147.9 69 170 69C192.1 69 210 86.9 210 109C210 131.1 192.1 149 170 149ZM175 129C175 131.761 172.761 134 170 134C167.239 134 165 131.761 165 129C165 126.239 167.239 124 170 124C172.761 124 175 126.239 175 129Z" fill="white"/>
</g>
<defs>
<filter id="filter0_d" x="115" y="58" width="110" height="110" filterUnits="userSpaceOnUse" color-interpolation-filters="sRGB">
<feFlood flood-opacity="0" result="BackgroundImageFix"/>
<feColorMatrix in="SourceAlpha" type="matrix" values="0 0 0 0 0 0 0 0 0 0 0 0 0 0 0 0 0 0 127 0"/>
<feOffset dy="4"/>
<feGaussianBlur stdDeviation="2.5"/>
<feColorMatrix type="matrix" values="0 0 0 0 0 0 0 0 0 0 0 0 0 0 0 0 0 0 0.2 0"/>
<feBlend mode="normal" in2="BackgroundImageFix" result="effect1_dropShadow"/>
<feBlend mode="normal" in="SourceGraphic" in2="effect1_dropShadow" result="shape"/>
</filter>
</defs>
</svg>
