<svg width="340" height="234" viewBox="0 0 340 234" fill="none" xmlns="http://www.w3.org/2000/svg">
<g opacity="0.2" filter="url(#filter0_d)">
<path fill-rule="evenodd" clip-rule="evenodd" d="M218.869 20.1112C219.373 19.982 219.881 19.8591 220.391 19.7427C251.535 12.64 282.54 32.1294 289.643 63.2734C294.458 84.3857 287.053 105.434 272.081 119.016C268.682 122.099 267.229 126.89 268.249 131.364C274.481 158.692 257.38 185.899 230.052 192.131C220.004 194.423 209.973 193.56 200.994 190.194C190.791 186.369 178.446 186.577 169.172 192.299C162.149 196.632 154.305 199.903 145.811 201.84C104.293 211.309 62.9597 185.328 53.491 143.809C45.9628 110.799 60.844 77.906 88.1265 61.052C95.5156 56.4874 100.449 48.5642 102.726 40.1825C107.062 24.2153 119.845 11.1038 137.103 7.16819C148.819 4.49605 160.512 6.52974 170.201 12.0259C183.248 19.4265 204.338 23.834 218.869 20.1112ZM290.849 142.56C296.145 142.56 300.438 138.267 300.438 132.971C300.438 127.675 296.145 123.382 290.849 123.382C285.553 123.382 281.26 127.675 281.26 132.971C281.26 138.267 285.553 142.56 290.849 142.56ZM84.9463 40.8553C84.9463 48.0202 79.138 53.8284 71.9731 53.8284C64.8083 53.8284 59 48.0202 59 40.8553C59 33.6904 64.8083 27.8821 71.9731 27.8821C79.138 27.8821 84.9463 33.6904 84.9463 40.8553ZM33.7686 219.537C37.5068 219.537 40.5372 216.507 40.5372 212.769C40.5372 209.03 37.5068 206 33.7686 206C30.0304 206 27 209.03 27 212.769C27 216.507 30.0304 219.537 33.7686 219.537ZM49.3306 172.665C49.3306 180.765 42.7647 187.331 34.6653 187.331C26.5659 187.331 20 180.765 20 172.665C20 164.566 26.5659 158 34.6653 158C42.7647 158 49.3306 164.566 49.3306 172.665ZM54.5124 206.025C57.0045 206.025 59.0248 204.005 59.0248 201.512C59.0248 199.02 57.0045 197 54.5124 197C52.0203 197 50 199.02 50 201.512C50 204.005 52.0203 206.025 54.5124 206.025Z" fill="white"/>
</g>
<g filter="url(#filter1_d)">
<path fill-rule="evenodd" clip-rule="evenodd" d="M170 88C172.75 88 175 90.25 175 93V113C175 115.75 172.75 118 170 118C167.25 118 165 115.75 165 113V93C165 90.25 167.25 88 170 88ZM169.95 63C142.35 63 120 85.4 120 113C120 140.6 142.35 163 169.95 163C197.6 163 220 140.6 220 113C220 85.4 197.6 63 169.95 63ZM170 153C147.9 153 130 135.1 130 113C130 90.9 147.9 73 170 73C192.1 73 210 90.9 210 113C210 135.1 192.1 153 170 153ZM175 133C175 135.761 172.761 138 170 138C167.239 138 165 135.761 165 133C165 130.239 167.239 128 170 128C172.761 128 175 130.239 175 133Z" fill="white"/>
</g>
<defs>
<filter id="filter0_d" x="10" y="0" width="300.438" height="233.537" filterUnits="userSpaceOnUse" color-interpolation-filters="sRGB">
<feFlood flood-opacity="0" result="BackgroundImageFix"/>
<feColorMatrix in="SourceAlpha" type="matrix" values="0 0 0 0 0 0 0 0 0 0 0 0 0 0 0 0 0 0 127 0"/>
<feOffset dy="4"/>
<feGaussianBlur stdDeviation="5"/>
<feColorMatrix type="matrix" values="0 0 0 0 0 0 0 0 0 0 0 0 0 0 0 0 0 0 0.25 0"/>
<feBlend mode="normal" in2="BackgroundImageFix" result="effect1_dropShadow"/>
<feBlend mode="normal" in="SourceGraphic" in2="effect1_dropShadow" result="shape"/>
</filter>
<filter id="filter1_d" x="115" y="62" width="110" height="110" filterUnits="userSpaceOnUse" color-interpolation-filters="sRGB">
<feFlood flood-opacity="0" result="BackgroundImageFix"/>
<feColorMatrix in="SourceAlpha" type="matrix" values="0 0 0 0 0 0 0 0 0 0 0 0 0 0 0 0 0 0 127 0"/>
<feOffset dy="4"/>
<feGaussianBlur stdDeviation="2.5"/>
<feColorMatrix type="matrix" values="0 0 0 0 0 0 0 0 0 0 0 0 0 0 0 0 0 0 0.2 0"/>
<feBlend mode="normal" in2="BackgroundImageFix" result="effect1_dropShadow"/>
<feBlend mode="normal" in="SourceGraphic" in2="effect1_dropShadow" result="shape"/>
</filter>
</defs>
</svg>
