<svg width="340" height="238" viewBox="0 0 340 238" fill="none" xmlns="http://www.w3.org/2000/svg">
<g opacity="0.2" filter="url(#filter0_d)">
<path fill-rule="evenodd" clip-rule="evenodd" d="M213.946 18.9731C213.946 26.138 208.138 31.9463 200.973 31.9463C193.808 31.9463 188 26.138 188 18.9731C188 11.8083 193.808 6 200.973 6C208.138 6 213.946 11.8083 213.946 18.9731ZM276.281 131.278C272.129 136.74 269.812 143.498 269.467 150.35C268.351 172.48 252.719 192.08 230.052 197.249C225.497 198.288 220.946 198.678 216.495 198.481C203.292 197.898 187.588 203.818 177.581 212.45C172.047 217.224 165.297 220.753 157.675 222.491C132.765 228.172 107.967 212.584 102.286 187.675C100.589 180.232 95.9648 173.352 89.1248 169.963C68.3918 159.693 52.2772 140.53 46.7315 116.213C36.9387 73.2727 63.8097 30.5243 106.75 20.7315C131.667 15.0487 156.521 21.7123 174.907 36.6977C184.468 44.4902 199.041 45.9941 210.651 41.829C212.829 41.0475 215.078 40.3881 217.391 39.8605C248.535 32.7578 279.54 52.2472 286.643 83.3912C290.607 100.774 286.288 118.114 276.281 131.278ZM19.5888 139.178C24.8846 139.178 29.1777 134.885 29.1777 129.589C29.1777 124.293 24.8846 120 19.5888 120C14.2931 120 10 124.293 10 129.589C10 134.885 14.2931 139.178 19.5888 139.178ZM281.769 190.537C285.507 190.537 288.537 187.507 288.537 183.769C288.537 180.03 285.507 177 281.769 177C278.03 177 275 180.03 275 183.769C275 187.507 278.03 190.537 281.769 190.537ZM317.331 151.665C317.331 159.765 310.765 166.331 302.665 166.331C294.566 166.331 288 159.765 288 151.665C288 143.566 294.566 137 302.665 137C310.765 137 317.331 143.566 317.331 151.665ZM312.512 185.025C315.005 185.025 317.025 183.005 317.025 180.512C317.025 178.02 315.005 176 312.512 176C310.02 176 308 178.02 308 180.512C308 183.005 310.02 185.025 312.512 185.025Z" fill="white"/>
</g>
<defs>
<filter id="filter0_d" x="0" y="0" width="327.331" height="237.659" filterUnits="userSpaceOnUse" color-interpolation-filters="sRGB">
<feFlood flood-opacity="0" result="BackgroundImageFix"/>
<feColorMatrix in="SourceAlpha" type="matrix" values="0 0 0 0 0 0 0 0 0 0 0 0 0 0 0 0 0 0 127 0"/>
<feOffset dy="4"/>
<feGaussianBlur stdDeviation="5"/>
<feColorMatrix type="matrix" values="0 0 0 0 0 0 0 0 0 0 0 0 0 0 0 0 0 0 0.25 0"/>
<feBlend mode="normal" in2="BackgroundImageFix" result="effect1_dropShadow"/>
<feBlend mode="normal" in="SourceGraphic" in2="effect1_dropShadow" result="shape"/>
</filter>
</defs>
</svg>
