<svg width="24" height="24" viewBox="0 0 24 24" fill="none" xmlns="http://www.w3.org/2000/svg">
<path d="M7.08984 8.52384V20H3.22266V8.52384H7.08984ZM7.33594 4.98025C7.34375 5.54382 7.14648 6.01476 6.74414 6.39305C6.3418 6.77134 5.8125 6.96049 5.15625 6.96049H5.13281C4.49219 6.96049 3.97656 6.77134 3.58594 6.39305C3.19531 6.01476 3 5.54382 3 4.98025C3 4.40895 3.20117 3.93608 3.60352 3.56165C4.00586 3.18722 4.53125 3 5.17969 3C5.82813 3 6.34766 3.18722 6.73828 3.56165C7.12891 3.93608 7.32813 4.40895 7.33594 4.98025ZM21 13.4223V20H17.1445V13.8624C17.1445 13.0518 16.9863 12.4168 16.6699 11.9574C16.3535 11.4981 15.8594 11.2684 15.1875 11.2684C14.6953 11.2684 14.2832 11.4016 13.9512 11.6679C13.6191 11.9343 13.3711 12.2643 13.207 12.658C13.1211 12.8896 13.0781 13.2023 13.0781 13.596V20H9.22266C9.23828 16.9196 9.24609 14.4221 9.24609 12.5075C9.24609 10.5929 9.24219 9.45027 9.23437 9.0797L9.22266 8.52384H13.0781V10.1914H13.0547C13.2109 9.94437 13.3711 9.7282 13.5352 9.54292C13.6992 9.35763 13.9199 9.1569 14.1973 8.94074C14.4746 8.72457 14.8145 8.55665 15.2168 8.43699C15.6191 8.31732 16.0664 8.25749 16.5586 8.25749C17.8945 8.25749 18.9687 8.69562 19.7812 9.57187C20.5937 10.4481 21 11.7316 21 13.4223Z" fill="white"/>
</svg>
