<?xml version="1.0" encoding="utf-8"?>
<!-- Generator: Adobe Illustrator 22.0.1, SVG Export Plug-In . SVG Version: 6.00 Build 0)  -->
<svg version="1.1" id="Camada_1" xmlns="http://www.w3.org/2000/svg" xmlns:xlink="http://www.w3.org/1999/xlink" x="0px" y="0px"
	 viewBox="0 0 60 60" style="enable-background:new 0 0 60 60;" xml:space="preserve">
<style type="text/css">
	.st0{fill:#878787;}
	.st1{fill:none;stroke:#688FB7;stroke-width:3;stroke-linecap:round;stroke-linejoin:round;stroke-miterlimit:10;}
	.st2{fill:none;stroke:#010202;stroke-width:3;stroke-linecap:round;stroke-linejoin:round;stroke-miterlimit:10;}
	.st3{fill:none;stroke:#688FB7;stroke-width:2.83;stroke-linecap:round;stroke-linejoin:round;stroke-miterlimit:10;}
	.st4{fill:none;stroke:#FFFFFF;stroke-width:2;stroke-linecap:round;stroke-linejoin:round;stroke-miterlimit:10;}
	.st5{fill:none;stroke:#688FB7;stroke-width:3.292;stroke-linecap:round;stroke-linejoin:round;stroke-miterlimit:10;}
	.st6{fill:none;stroke:#688FB7;stroke-width:3.1883;stroke-linecap:round;stroke-linejoin:round;stroke-miterlimit:10;}
	.st7{fill:none;stroke:#688FB7;stroke-width:3.1968;stroke-linecap:round;stroke-linejoin:round;stroke-miterlimit:10;}
	.st8{fill:none;stroke:#678FB7;stroke-width:2;stroke-linecap:round;stroke-linejoin:round;stroke-miterlimit:10;}
	.st9{fill:none;stroke:#688FB7;stroke-width:2.2987;stroke-linecap:round;stroke-linejoin:round;stroke-miterlimit:10;}
	.st10{fill:none;stroke:#FFFFFF;stroke-width:2.3;stroke-linecap:round;stroke-linejoin:round;stroke-miterlimit:10;}
	.st11{fill:none;stroke:#688FB7;stroke-width:3.2;stroke-linecap:round;stroke-linejoin:round;stroke-miterlimit:10;}
</style>
<g>
	<g>
		<path class="st4" d="M20.9,29.1h-9.5V18.5h9.5c2.9,0,5.3,2.4,5.3,5.3v0C26.2,26.7,23.8,29.1,20.9,29.1z"/>
		<path class="st4" d="M21.9,41.3H11.4V29h10.5c3.4,0,6.1,2.7,6.1,6.1v0C28,38.5,25.3,41.3,21.9,41.3z"/>
	</g>
	<g>
		<path class="st4" d="M47.6,38.5c-1.6,2-3.9,3-6.6,3h0c-4.7,0-7.6-2.9-7.6-7.6v0c0-4.7,2.9-8.5,7.6-8.5h0c4.7,0,7.6,3.8,7.6,8.5"/>
		<line class="st4" x1="48.6" y1="33.9" x2="33.7" y2="33.9"/>
	</g>
	<line class="st4" x1="36.4" y1="19.4" x2="46.5" y2="19.4"/>
</g>
<line class="st8" x1="57.3" y1="57.2" x2="2.7" y2="57.2"/>
</svg>
