<?xml version="1.0" encoding="UTF-8"?><svg version="1.1" viewBox="0 0 48 41" xmlns="http://www.w3.org/2000/svg" xmlns:xlink="http://www.w3.org/1999/xlink"><!--Generated by IJSVG (https://github.com/iconjar/IJSVG)--><path d="M347.976,374.479c-0.208849,4.62068 -3.47704,10.9371 -9.782,18.9521c-6.5251,8.38093 -12.0539,12.5686 -16.5724,12.5686c-2.79405,0 -5.16194,-2.5478 -7.0952,-7.66017c-1.29542,-4.69053 -2.58238,-9.38105 -3.87498,-14.0576c-1.43936,-5.11516 -2.98032,-7.67134 -4.62853,-7.67134c-0.358429,0 -1.6087,0.745903 -3.76492,2.2405l-2.25782,-2.88025c2.36507,-2.05333 4.69626,-4.11504 6.99642,-6.17116c3.14966,-2.69866 5.51755,-4.11504 7.09802,-4.2631c3.7254,-0.357586 6.02273,2.16507 6.88917,7.5596c0.922884,5.82475 1.57201,9.44531 1.93044,10.8645c1.07811,4.82741 2.25782,7.23553 3.55042,7.23553c1.00191,0 2.509,-1.55885 4.51846,-4.67935c2.00946,-3.12609 3.0791,-5.50068 3.22586,-7.13776c0.287872,-2.69866 -0.787415,-4.03961 -3.22586,-4.03961c-1.14867,0 -2.33402,0.240253 -3.55042,0.743109c2.37071,-7.59591 6.88635,-11.2891 13.5582,-11.074c4.9418,0.136888 7.27582,3.29929 6.98513,9.47045" transform="matrix(1,0,0,1,-300,-365)" fill-rule="evenodd" fill="#FFF" stroke="none"></path></svg>